<svg width="234" height="43" viewBox="0 0 234 43" fill="none" xmlns="http://www.w3.org/2000/svg">
<path d="M68.1181 26.6136C65.997 28.7035 63.2586 29.6762 60.282 29.6762C52.6256 29.6762 49.3834 24.4026 49.356 19.0432C49.3248 13.6524 52.8327 8.17578 60.282 8.17578C63.079 8.17578 65.7313 9.23439 67.8525 11.3282L65.2626 13.8321C63.9071 12.5079 62.0828 11.8868 60.2859 11.8868C55.3093 11.8868 53.1569 15.5978 53.1881 19.0432C53.2194 22.4612 55.1921 26.0238 60.2859 26.0238C62.0828 26.0238 64.1141 25.2855 65.4696 23.9339L68.122 26.6136H68.1181Z" fill="black"/>
<path d="M84.173 21.9611C84.173 26.1447 81.3175 29.5315 76.6026 29.5315C71.8876 29.5315 69.0634 26.1447 69.0634 21.9611C69.0634 17.7774 71.9501 14.3906 76.5752 14.3906C81.2003 14.3906 84.173 17.8087 84.173 21.9611ZM72.6572 21.9611C72.6572 24.1681 73.9814 26.2307 76.6026 26.2307C79.2237 26.2307 80.5479 24.1681 80.5479 21.9611C80.5479 19.754 79.0167 17.6602 76.6026 17.6602C74.0127 17.6602 72.6572 19.7813 72.6572 21.9611Z" fill="black"/>
<path d="M96.3061 29.2036V21.4301C96.3061 19.516 95.3061 17.7777 93.3334 17.7777C91.3607 17.7777 90.2396 19.516 90.2396 21.4301V29.2036H86.6458V14.6526H89.9739L90.2396 16.4183C91.0052 14.9456 92.6849 14.4143 94.0678 14.4143C95.8061 14.4143 97.5444 15.1214 98.3686 17.1253C99.6655 15.0628 101.345 14.4729 103.228 14.4729C107.353 14.4729 109.384 17.0042 109.384 21.3637V29.1997H105.791V21.3637C105.791 19.4496 104.994 17.8284 103.052 17.8284C101.111 17.8284 99.8999 19.5082 99.8999 21.4222V29.1958H96.3061V29.2036Z" fill="black"/>
<path d="M112.744 35.2741V14.6878H116.103L116.338 16.6917C117.459 15.0706 119.4 14.3635 121.049 14.3635C125.525 14.3635 128.498 17.6917 128.498 21.9613C128.498 26.2309 125.818 29.5591 121.166 29.5591C119.635 29.5591 117.365 29.0865 116.338 27.4966V35.2702H112.744V35.2741ZM124.908 21.9613C124.908 19.6917 123.377 17.8362 120.783 17.8362C118.189 17.8362 116.658 19.6917 116.658 21.9613C116.658 24.2309 118.338 26.0864 120.783 26.0864C123.228 26.0864 124.908 24.2309 124.908 21.9613Z" fill="black"/>
<path d="M142.666 14.6836H146.112V29.2034H142.725L142.549 27.0823C141.725 28.7894 139.455 29.6136 137.838 29.6449C133.537 29.6761 130.357 27.0237 130.357 21.9299C130.357 16.836 133.686 14.3008 137.928 14.3321C139.873 14.3321 141.729 15.2462 142.553 16.6876L142.67 14.6836H142.666ZM133.947 21.9299C133.947 24.6995 135.861 26.3479 138.248 26.3479C143.905 26.3479 143.905 17.5431 138.248 17.5431C135.861 17.5431 133.947 19.1642 133.947 21.9299Z" fill="black"/>
<path d="M161.928 27.3479C160.249 28.9964 158.483 29.6448 156.334 29.6448C152.123 29.6448 148.62 27.1135 148.62 21.9572C148.62 16.8008 152.123 14.2695 156.334 14.2695C158.397 14.2695 159.987 14.8594 161.577 16.418L159.307 18.8048C158.452 18.0391 157.393 17.6563 156.393 17.6563C153.979 17.6563 152.209 19.422 152.209 21.9572C152.209 24.7268 154.096 26.1994 156.334 26.1994C157.483 26.1994 158.631 25.8752 159.514 24.9924L161.928 27.3479Z" fill="black"/>
<path d="M168.585 10.5898V14.7149H172.589V17.8087H168.554V24.0823C168.554 25.4651 169.319 26.1448 170.44 26.1448C170.999 26.1448 171.647 25.969 172.179 25.7034L173.179 28.766C172.147 29.18 171.292 29.3558 170.202 29.3832C167.05 29.5003 164.991 27.7034 164.991 24.0823V17.8087H162.28V14.7149H164.991V10.9727L168.585 10.5898Z" fill="black"/>
<path d="M193.265 18.6603C193.382 23.9026 190.027 29.2035 182.808 29.2035H175.827V8.58984H182.808C189.788 8.58984 193.144 13.5977 193.265 18.6642V18.6603ZM177.421 10.0899V27.6722H182.812C188.937 27.6722 191.765 23.0784 191.675 18.6603C191.585 14.3595 188.761 10.0899 182.812 10.0899H177.421Z" fill="black"/>
<path d="M196.39 21.9298C196.39 17.5704 199.687 14.418 203.781 14.418C207.874 14.418 211.527 16.9219 210.968 22.6056H197.863C198.156 26.0237 200.777 27.9963 203.781 27.9963C205.695 27.9963 207.933 27.2307 209.023 25.7893L210.054 26.6135C208.64 28.469 206.109 29.4104 203.781 29.4104C199.687 29.4104 196.39 26.5549 196.39 21.9298ZM209.671 21.34C209.64 17.7462 207.285 15.7422 203.781 15.7422C200.777 15.7422 198.183 17.7735 197.863 21.34H209.671Z" fill="black"/>
<path d="M216.566 18.3947H228.433V19.8947H216.566V29.2308H214.976V8.58984H228.848V10.1797H216.566V18.3986V18.3947Z" fill="black"/>
<path d="M234 9.91408C234 11.4454 231.672 11.4454 231.672 9.91408C231.672 8.38281 234 8.38281 234 9.91408ZM232.086 14.5978V29.2074H233.527V14.5978H232.086Z" fill="black"/>
<path d="M22.125 42.864C17.7812 42.864 14.246 39.3288 14.246 34.985V28.3677C14.246 26.7427 13.371 25.227 11.9647 24.4145L7.32006 21.7348C3.55827 19.5628 2.26528 14.7346 4.4372 10.9728C5.488 9.14858 7.18725 7.84778 9.22244 7.30089C11.2537 6.75791 13.3788 7.03526 15.203 8.08997L19.8476 10.7736C21.2539 11.5861 23.0039 11.5861 24.4102 10.7736L27.3517 9.07436L32.8283 5.44929C34.6526 4.39849 36.7737 4.11724 38.8089 4.66412C40.8402 5.2071 42.5395 6.51181 43.5942 8.33607C44.645 10.1603 44.9262 12.2815 44.3793 14.3166C43.8403 16.3323 42.5512 18.0198 40.7543 19.0745L34.8518 22.9457L32.2854 24.4262C30.8791 25.2387 30.0041 26.7544 30.0041 28.3794V34.9928C30.0041 39.3366 26.4689 42.8719 22.125 42.8719V42.864ZM11.2654 10.508C10.8826 10.508 10.4998 10.5588 10.1209 10.6603C8.98416 10.965 8.03883 11.6916 7.44897 12.7111C6.23801 14.8127 6.95677 17.5081 9.05838 18.7191L13.703 21.3988C16.1835 22.8324 17.7265 25.5004 17.7265 28.3638V34.9811C17.7265 37.4069 19.6992 39.3796 22.125 39.3796C24.5508 39.3796 26.5235 37.4069 26.5235 34.9811V28.3677C26.5235 25.5044 28.0665 22.8324 30.5471 21.4027L33.0705 19.9457L38.9691 16.0784C39.9886 15.4924 40.7152 14.5432 41.0199 13.4065C41.3246 12.2697 41.1683 11.0861 40.5824 10.0666C39.9964 9.04702 39.0472 8.32044 37.9105 8.01575C36.7933 7.71496 35.6214 7.8634 34.6135 8.42982L29.1408 12.051L26.1524 13.7737C23.6719 15.2073 20.5898 15.2073 18.1093 13.7737L13.4647 11.09C12.785 10.6994 12.035 10.5002 11.2733 10.5002L11.2654 10.508Z" fill="url(#paint0_linear_29_3374)"/>
<path d="M7.89424 37.9304C7.21064 37.9304 6.51922 37.8405 5.84343 37.6569C3.81214 37.114 2.11289 35.8093 1.05818 33.985C0.00738022 32.1647 -0.273875 30.0435 0.27301 28.0122C0.815989 25.9849 2.11289 24.2895 3.92933 23.2387L6.71844 21.477L11.4685 18.7347C13.1834 17.7425 14.2498 15.8987 14.2498 13.9143V7.62514H14.2537C14.3866 3.3985 17.8671 0 22.1289 0C26.3907 0 30.0079 3.53522 30.0079 7.87905V13.9182C30.0079 15.8987 31.0744 17.7464 32.7892 18.7386L36.9338 21.1332C38.7581 22.184 40.0589 23.8833 40.6058 25.9184C41.1488 27.9497 40.8714 30.0748 39.8167 31.899C38.7659 33.7233 37.0667 35.0241 35.0315 35.571C32.9963 36.1139 30.8751 35.8366 29.0509 34.7819L24.9024 32.3873C23.1875 31.3951 21.0546 31.3951 19.3359 32.3873L16.8827 33.8053L11.8162 36.8835C10.6013 37.5827 9.25365 37.9421 7.89034 37.9421L7.89424 37.9304ZM11.2107 22.891L5.67936 26.2388C4.65981 26.8247 3.93323 27.7739 3.62854 28.9107C3.32385 30.0474 3.4801 31.231 4.06605 32.2506C4.652 33.2701 5.60123 33.9967 6.73797 34.3014C7.8669 34.6022 9.04661 34.4499 10.0623 33.8717L14.242 31.3326V31.3053L17.5975 29.3677C20.3867 27.7583 23.8516 27.7583 26.6407 29.3677L30.7892 31.7623C31.8087 32.3483 32.9924 32.5045 34.1291 32.2037C35.2658 31.899 36.2112 31.1724 36.801 30.1529C37.387 29.1333 37.5432 27.9497 37.2424 26.813C36.9377 25.6763 36.2112 24.7309 35.1916 24.1411L31.047 21.7465C28.2579 20.1371 26.5235 17.1331 26.5235 13.9143V7.87515C26.5235 5.44932 24.5508 3.47663 22.125 3.47663C19.6992 3.47663 17.7265 5.44932 17.7265 7.87515V13.4846V13.9104C17.7265 17.1331 15.9921 20.1332 13.2029 21.7426L11.2107 22.891Z" fill="black"/>
<mask id="mask0_29_3374" style="mask-type:luminance" maskUnits="userSpaceOnUse" x="12" y="25" width="8" height="12">
<path d="M19.1835 26.1919C19.0819 28.2544 20.0937 30.2349 19.6835 32.3326C19.2499 34.5475 16.7577 37.1608 14.3631 35.9616C8.78096 33.1686 14.4139 23.227 19.1835 26.1919C14.4139 23.227 19.0819 28.2544 19.1835 26.1919Z" fill="white"/>
</mask>
<g mask="url(#mask0_29_3374)">
<path d="M7.89424 37.9304C7.21064 37.9304 6.51922 37.8405 5.84343 37.6569C3.81214 37.114 2.11289 35.8093 1.05818 33.985C0.00738022 32.1647 -0.273875 30.0435 0.27301 28.0122C0.815989 25.9849 2.11289 24.2895 3.92933 23.2387L6.71844 21.477L11.4685 18.7347C13.1834 17.7425 14.2498 15.8987 14.2498 13.9143V7.62514H14.2537C14.3866 3.3985 17.8671 0 22.1289 0C26.3907 0 30.0079 3.53522 30.0079 7.87905V13.9182C30.0079 15.8987 31.0744 17.7464 32.7892 18.7386L36.9338 21.1332C38.7581 22.184 40.0589 23.8833 40.6058 25.9184C41.1488 27.9497 40.8714 30.0748 39.8167 31.899C38.7659 33.7233 37.0667 35.0241 35.0315 35.571C32.9963 36.1139 30.8751 35.8366 29.0509 34.7819L24.9024 32.3873C23.1875 31.3951 21.0546 31.3951 19.3359 32.3873L16.8827 33.8053L11.8162 36.8835C10.6013 37.5827 9.25365 37.9421 7.89034 37.9421L7.89424 37.9304ZM11.2107 22.891L5.67936 26.2388C4.65981 26.8247 3.93323 27.7739 3.62854 28.9107C3.32385 30.0474 3.4801 31.231 4.06605 32.2506C4.652 33.2701 5.60123 33.9967 6.73797 34.3014C7.8669 34.6022 9.04661 34.4499 10.0623 33.8717L14.242 31.3326V31.3053L17.5975 29.3677C20.3867 27.7583 23.8516 27.7583 26.6407 29.3677L30.7892 31.7623C31.8087 32.3483 32.9924 32.5045 34.1291 32.2037C35.2658 31.899 36.2112 31.1724 36.801 30.1529C37.387 29.1333 37.5432 27.9497 37.2424 26.813C36.9377 25.6763 36.2112 24.7309 35.1916 24.1411L31.047 21.7465C28.2579 20.1371 26.5235 17.1331 26.5235 13.9143V7.87515C26.5235 5.44932 24.5508 3.47663 22.125 3.47663C19.6992 3.47663 17.7265 5.44932 17.7265 7.87515V13.4846V13.9104C17.7265 17.1331 15.9921 20.1332 13.2029 21.7426L11.2107 22.891Z" fill="black"/>
<path d="M22.125 42.864C17.7812 42.864 14.246 39.3288 14.246 34.985V28.3677C14.246 26.7427 13.371 25.227 11.9647 24.4145L7.32006 21.7348C3.55827 19.5628 2.26528 14.7346 4.4372 10.9728C5.488 9.14858 7.18725 7.84778 9.22244 7.30089C11.2537 6.75791 13.3788 7.03526 15.203 8.08997L19.8476 10.7736C21.2539 11.5861 23.0039 11.5861 24.4102 10.7736L27.3517 9.07436L32.8283 5.44929C34.6526 4.39849 36.7737 4.11724 38.8089 4.66412C40.8402 5.2071 42.5395 6.51181 43.5942 8.33607C44.645 10.1603 44.9262 12.2815 44.3793 14.3166C43.8403 16.3323 42.5512 18.0198 40.7543 19.0745L34.8518 22.9457L32.2854 24.4262C30.8791 25.2387 30.0041 26.7544 30.0041 28.3794V34.9928C30.0041 39.3366 26.4689 42.8719 22.125 42.8719V42.864ZM11.2654 10.508C10.8826 10.508 10.4998 10.5588 10.1209 10.6603C8.98416 10.965 8.03883 11.6916 7.44897 12.7111C6.23801 14.8127 6.95677 17.5081 9.05838 18.7191L13.703 21.3988C16.1835 22.8324 17.7265 25.5004 17.7265 28.3638V34.9811C17.7265 37.4069 19.6992 39.3796 22.125 39.3796C24.5508 39.3796 26.5235 37.4069 26.5235 34.9811V28.3677C26.5235 25.5044 28.0665 22.8324 30.5471 21.4027L33.0705 19.9457L38.9691 16.0784C39.9886 15.4924 40.7152 14.5432 41.0199 13.4065C41.3246 12.2697 41.1683 11.0861 40.5824 10.0666C39.9964 9.04702 39.0472 8.32044 37.9105 8.01575C36.7933 7.71496 35.6214 7.8634 34.6135 8.42982L29.1408 12.051L26.1524 13.7737C23.6719 15.2073 20.5898 15.2073 18.1093 13.7737L13.4647 11.09C12.785 10.6994 12.035 10.5002 11.2733 10.5002L11.2654 10.508Z" fill="url(#paint1_linear_29_3374)"/>
</g>
<mask id="mask1_29_3374" style="mask-type:luminance" maskUnits="userSpaceOnUse" x="26" y="17" width="15" height="11">
<path d="M27.4218 22.6332C27.121 20.1254 29.9258 18.7816 31.875 18.2035C33.1094 17.8402 34.4805 17.4417 35.7774 17.4066C37.5978 17.3597 38.5509 18.5707 39.3986 20.1059C40.297 21.7387 40.7463 23.4926 39.8752 25.2427C39.0744 26.8482 37.6603 27.2622 35.9806 27.3951C33.8282 27.563 31.625 27.1451 29.7812 25.9927C28.1992 25.0044 26.6366 22.5981 27.4218 22.6332C26.6366 22.5981 27.121 20.1254 27.4218 22.6332Z" fill="white"/>
</mask>
<g mask="url(#mask1_29_3374)">
<path d="M7.89424 37.9304C7.21064 37.9304 6.51922 37.8405 5.84343 37.6569C3.81214 37.114 2.11289 35.8093 1.05818 33.985C0.00738022 32.1647 -0.273875 30.0435 0.27301 28.0122C0.815989 25.9849 2.11289 24.2895 3.92933 23.2387L6.71844 21.477L11.4685 18.7347C13.1834 17.7425 14.2498 15.8987 14.2498 13.9143V7.62514H14.2537C14.3866 3.3985 17.8671 0 22.1289 0C26.3907 0 30.0079 3.53522 30.0079 7.87905V13.9182C30.0079 15.8987 31.0744 17.7464 32.7892 18.7386L36.9338 21.1332C38.7581 22.184 40.0589 23.8833 40.6058 25.9184C41.1488 27.9497 40.8714 30.0748 39.8167 31.899C38.7659 33.7233 37.0667 35.0241 35.0315 35.571C32.9963 36.1139 30.8751 35.8366 29.0509 34.7819L24.9024 32.3873C23.1875 31.3951 21.0546 31.3951 19.3359 32.3873L16.8827 33.8053L11.8162 36.8835C10.6013 37.5827 9.25365 37.9421 7.89034 37.9421L7.89424 37.9304ZM11.2107 22.891L5.67936 26.2388C4.65981 26.8247 3.93323 27.7739 3.62854 28.9107C3.32385 30.0474 3.4801 31.231 4.06605 32.2506C4.652 33.2701 5.60123 33.9967 6.73797 34.3014C7.8669 34.6022 9.04661 34.4499 10.0623 33.8717L14.242 31.3326V31.3053L17.5975 29.3677C20.3867 27.7583 23.8516 27.7583 26.6407 29.3677L30.7892 31.7623C31.8087 32.3483 32.9924 32.5045 34.1291 32.2037C35.2658 31.899 36.2112 31.1724 36.801 30.1529C37.387 29.1333 37.5432 27.9497 37.2424 26.813C36.9377 25.6763 36.2112 24.7309 35.1916 24.1411L31.047 21.7465C28.2579 20.1371 26.5235 17.1331 26.5235 13.9143V7.87515C26.5235 5.44932 24.5508 3.47663 22.125 3.47663C19.6992 3.47663 17.7265 5.44932 17.7265 7.87515V13.4846V13.9104C17.7265 17.1331 15.9921 20.1332 13.2029 21.7426L11.2107 22.891Z" fill="black"/>
<path d="M22.125 42.864C17.7812 42.864 14.246 39.3288 14.246 34.985V28.3677C14.246 26.7427 13.371 25.227 11.9647 24.4145L7.32006 21.7348C3.55827 19.5628 2.26528 14.7346 4.4372 10.9728C5.488 9.14858 7.18725 7.84778 9.22244 7.30089C11.2537 6.75791 13.3788 7.03526 15.203 8.08997L19.8476 10.7736C21.2539 11.5861 23.0039 11.5861 24.4102 10.7736L27.3517 9.07436L32.8283 5.44929C34.6526 4.39849 36.7737 4.11724 38.8089 4.66412C40.8402 5.2071 42.5395 6.51181 43.5942 8.33607C44.645 10.1603 44.9262 12.2815 44.3793 14.3166C43.8403 16.3323 42.5512 18.0198 40.7543 19.0745L34.8518 22.9457L32.2854 24.4262C30.8791 25.2387 30.0041 26.7544 30.0041 28.3794V34.9928C30.0041 39.3366 26.4689 42.8719 22.125 42.8719V42.864ZM11.2654 10.508C10.8826 10.508 10.4998 10.5588 10.1209 10.6603C8.98416 10.965 8.03883 11.6916 7.44897 12.7111C6.23801 14.8127 6.95677 17.5081 9.05838 18.7191L13.703 21.3988C16.1835 22.8324 17.7265 25.5004 17.7265 28.3638V34.9811C17.7265 37.4069 19.6992 39.3796 22.125 39.3796C24.5508 39.3796 26.5235 37.4069 26.5235 34.9811V28.3677C26.5235 25.5044 28.0665 22.8324 30.5471 21.4027L33.0705 19.9457L38.9691 16.0784C39.9886 15.4924 40.7152 14.5432 41.0199 13.4065C41.3246 12.2697 41.1683 11.0861 40.5824 10.0666C39.9964 9.04702 39.0472 8.32044 37.9105 8.01575C36.7933 7.71496 35.6214 7.8634 34.6135 8.42982L29.1408 12.051L26.1524 13.7737C23.6719 15.2073 20.5898 15.2073 18.1093 13.7737L13.4647 11.09C12.785 10.6994 12.035 10.5002 11.2733 10.5002L11.2654 10.508Z" fill="url(#paint2_linear_29_3374)"/>
</g>
<mask id="mask2_29_3374" style="mask-type:luminance" maskUnits="userSpaceOnUse" x="11" y="6" width="11" height="10">
<path d="M19.8398 8.21503C18.8046 6.84782 15.9843 6.11733 14.3163 6.05874C12.8592 6.00796 11.5115 7.69158 11.3045 9.11739C11.1092 10.4768 11.8592 12.9026 12.785 13.9026C13.7381 14.93 15.7343 15.9652 17.1757 15.7191C19.3242 15.348 20.2031 13.5433 20.8672 11.7424C21.3672 10.3869 21.0351 9.66818 20.0468 8.4416C19.5781 7.85955 19.0546 7.29704 19.8398 8.21503C19.0546 7.29704 18.8046 6.84782 19.8398 8.21503Z" fill="white"/>
</mask>
<g mask="url(#mask2_29_3374)">
<path d="M7.89424 37.9304C7.21064 37.9304 6.51922 37.8405 5.84343 37.6569C3.81214 37.114 2.11289 35.8093 1.05818 33.985C0.00738022 32.1647 -0.273875 30.0435 0.27301 28.0122C0.815989 25.9849 2.11289 24.2895 3.92933 23.2387L6.71844 21.477L11.4685 18.7347C13.1834 17.7425 14.2498 15.8987 14.2498 13.9143V7.62514H14.2537C14.3866 3.3985 17.8671 0 22.1289 0C26.3907 0 30.0079 3.53522 30.0079 7.87905V13.9182C30.0079 15.8987 31.0744 17.7464 32.7892 18.7386L36.9338 21.1332C38.7581 22.184 40.0589 23.8833 40.6058 25.9184C41.1488 27.9497 40.8714 30.0748 39.8167 31.899C38.7659 33.7233 37.0667 35.0241 35.0315 35.571C32.9963 36.1139 30.8751 35.8366 29.0509 34.7819L24.9024 32.3873C23.1875 31.3951 21.0546 31.3951 19.3359 32.3873L16.8827 33.8053L11.8162 36.8835C10.6013 37.5827 9.25365 37.9421 7.89034 37.9421L7.89424 37.9304ZM11.2107 22.891L5.67936 26.2388C4.65981 26.8247 3.93323 27.7739 3.62854 28.9107C3.32385 30.0474 3.4801 31.231 4.06605 32.2506C4.652 33.2701 5.60123 33.9967 6.73797 34.3014C7.8669 34.6022 9.04661 34.4499 10.0623 33.8717L14.242 31.3326V31.3053L17.5975 29.3677C20.3867 27.7583 23.8516 27.7583 26.6407 29.3677L30.7892 31.7623C31.8087 32.3483 32.9924 32.5045 34.1291 32.2037C35.2658 31.899 36.2112 31.1724 36.801 30.1529C37.387 29.1333 37.5432 27.9497 37.2424 26.813C36.9377 25.6763 36.2112 24.7309 35.1916 24.1411L31.047 21.7465C28.2579 20.1371 26.5235 17.1331 26.5235 13.9143V7.87515C26.5235 5.44932 24.5508 3.47663 22.125 3.47663C19.6992 3.47663 17.7265 5.44932 17.7265 7.87515V13.4846V13.9104C17.7265 17.1331 15.9921 20.1332 13.2029 21.7426L11.2107 22.891Z" fill="black"/>
<path d="M22.125 42.864C17.7812 42.864 14.246 39.3288 14.246 34.985V28.3677C14.246 26.7427 13.371 25.227 11.9647 24.4145L7.32006 21.7348C3.55827 19.5628 2.26528 14.7346 4.4372 10.9728C5.488 9.14858 7.18725 7.84778 9.22244 7.30089C11.2537 6.75791 13.3788 7.03526 15.203 8.08997L19.8476 10.7736C21.2539 11.5861 23.0039 11.5861 24.4102 10.7736L27.3517 9.07436L32.8283 5.44929C34.6526 4.39849 36.7737 4.11724 38.8089 4.66412C40.8402 5.2071 42.5395 6.51181 43.5942 8.33607C44.645 10.1603 44.9262 12.2815 44.3793 14.3166C43.8403 16.3323 42.5512 18.0198 40.7543 19.0745L34.8518 22.9457L32.2854 24.4262C30.8791 25.2387 30.0041 26.7544 30.0041 28.3794V34.9928C30.0041 39.3366 26.4689 42.8719 22.125 42.8719V42.864ZM11.2654 10.508C10.8826 10.508 10.4998 10.5588 10.1209 10.6603C8.98416 10.965 8.03883 11.6916 7.44897 12.7111C6.23801 14.8127 6.95677 17.5081 9.05838 18.7191L13.703 21.3988C16.1835 22.8324 17.7265 25.5004 17.7265 28.3638V34.9811C17.7265 37.4069 19.6992 39.3796 22.125 39.3796C24.5508 39.3796 26.5235 37.4069 26.5235 34.9811V28.3677C26.5235 25.5044 28.0665 22.8324 30.5471 21.4027L33.0705 19.9457L38.9691 16.0784C39.9886 15.4924 40.7152 14.5432 41.0199 13.4065C41.3246 12.2697 41.1683 11.0861 40.5824 10.0666C39.9964 9.04702 39.0472 8.32044 37.9105 8.01575C36.7933 7.71496 35.6214 7.8634 34.6135 8.42982L29.1408 12.051L26.1524 13.7737C23.6719 15.2073 20.5898 15.2073 18.1093 13.7737L13.4647 11.09C12.785 10.6994 12.035 10.5002 11.2733 10.5002L11.2654 10.508Z" fill="url(#paint3_linear_29_3374)"/>
</g>
<defs>
<linearGradient id="paint0_linear_29_3374" x1="24.0178" y1="-2.61906" x2="24.0178" y2="39.5119" gradientUnits="userSpaceOnUse">
<stop stop-color="#FF845A"/>
<stop offset="0.3" stop-color="#FD49AD"/>
<stop offset="0.68" stop-color="#395DF0"/>
<stop offset="1" stop-color="#0CDAC4"/>
</linearGradient>
<linearGradient id="paint1_linear_29_3374" x1="24.0178" y1="-2.61906" x2="24.0178" y2="39.5119" gradientUnits="userSpaceOnUse">
<stop stop-color="#FF845A"/>
<stop offset="0.3" stop-color="#FD49AD"/>
<stop offset="0.68" stop-color="#395DF0"/>
<stop offset="1" stop-color="#0CDAC4"/>
</linearGradient>
<linearGradient id="paint2_linear_29_3374" x1="24.0178" y1="-2.61906" x2="24.0178" y2="39.5119" gradientUnits="userSpaceOnUse">
<stop stop-color="#FF845A"/>
<stop offset="0.3" stop-color="#FD49AD"/>
<stop offset="0.68" stop-color="#395DF0"/>
<stop offset="1" stop-color="#0CDAC4"/>
</linearGradient>
<linearGradient id="paint3_linear_29_3374" x1="24.0178" y1="-2.61906" x2="24.0178" y2="39.5119" gradientUnits="userSpaceOnUse">
<stop stop-color="#FF845A"/>
<stop offset="0.3" stop-color="#FD49AD"/>
<stop offset="0.68" stop-color="#395DF0"/>
<stop offset="1" stop-color="#0CDAC4"/>
</linearGradient>
</defs>
</svg>
