<svg width="254" height="286" viewBox="0 0 254 286" fill="none" xmlns="http://www.w3.org/2000/svg">
<path d="M354.001 20.8069L28.0012 198.807" stroke="#093A61"/>
<path d="M346.991 3.62646L57.0122 158.987" stroke="#093A61" stroke-dasharray="5 5"/>
<path d="M354.001 67.8069L200.001 150.807" stroke="#093A61"/>
<path d="M201.001 150.807L52.0012 86.8069" stroke="#093A61"/>
<path d="M162.675 255.454L27.9948 198.589" stroke="#093A61"/>
<path d="M79.8704 170.655L57.9225 160.679" stroke="#093A61" stroke-dasharray="5 5"/>
<path d="M37.211 98.0627L74.4446 81.0473L37.2449 64.2476L-3.8147e-05 81.104L37.211 98.0627Z" fill="#072740"/>
<path d="M37.211 87.6498L74.4446 70.6345L37.2449 53.8347L-3.8147e-05 70.6912L37.211 87.6498Z" fill="#092F4E"/>
<path d="M37.211 77.622L74.4446 60.6067L37.2449 43.8069L-3.8147e-05 60.6634L37.211 77.622Z" fill="#093A61"/>
<path d="M176.508 268.665L199.589 258.117L176.529 247.703L153.441 258.152L176.508 268.665Z" fill="#092F4E"/>
<path d="M176.508 262.449L199.589 251.901L176.529 241.487L153.441 251.937L176.508 262.449Z" fill="#093A61"/>
<path d="M176.63 275.407L211.558 259.343L176.662 243.483L141.724 259.397L176.63 275.407Z" stroke="#093A61"/>
<ellipse rx="3.99053" ry="1.99526" transform="matrix(-1 0 0 1 56.9921 158.802)" fill="#093A61"/>
<ellipse rx="3.99053" ry="1.99526" transform="matrix(-1 0 0 1 199.991 150.802)" fill="#093A61"/>
<ellipse rx="3.99053" ry="1.99526" transform="matrix(-1 0 0 1 28.9912 198.59)" fill="#093A61"/>
</svg>
