<svg width="219" height="45" viewBox="0 0 219 45" fill="none" xmlns="http://www.w3.org/2000/svg">
<path d="M22.1249 42.864C17.7811 42.864 14.2458 39.3288 14.2458 34.985V28.3677C14.2458 26.7427 13.3708 25.227 11.9646 24.4145L7.31994 21.7348C3.55815 19.5628 2.26516 14.7346 4.43707 10.9728C5.48788 9.14858 7.18713 7.84778 9.22232 7.30089C11.2536 6.75791 13.3786 7.03526 15.2029 8.08997L19.8475 10.7736C21.2538 11.5861 23.0038 11.5861 24.4101 10.7736L27.3516 9.07436L32.8282 5.44929C34.6525 4.39849 36.7736 4.11724 38.8088 4.66412C40.8401 5.2071 42.5393 6.51181 43.594 8.33607C44.6448 10.1603 44.9261 12.2815 44.3792 14.3166C43.8401 16.3323 42.5511 18.0198 40.7542 19.0745L34.8517 22.9457L32.2852 24.4262C30.879 25.2387 30.004 26.7544 30.004 28.3794V34.9928C30.004 39.3366 26.4687 42.8719 22.1249 42.8719V42.864ZM11.2653 10.508C10.8825 10.508 10.4997 10.5588 10.1208 10.6603C8.98403 10.965 8.0387 11.6916 7.44885 12.7111C6.23789 14.8127 6.95665 17.5081 9.05825 18.7191L13.7029 21.3988C16.1834 22.8324 17.7264 25.5004 17.7264 28.3638V34.9811C17.7264 37.4069 19.6991 39.3796 22.1249 39.3796C24.5507 39.3796 26.5234 37.4069 26.5234 34.9811V28.3677C26.5234 25.5044 28.0664 22.8324 30.5469 21.4027L33.0704 19.9457L38.969 16.0784C39.9885 15.4924 40.7151 14.5432 41.0198 13.4065C41.3245 12.2697 41.1682 11.0861 40.5823 10.0666C39.9963 9.04702 39.0471 8.32044 37.9103 8.01575C36.7931 7.71496 35.6212 7.8634 34.6134 8.42982L29.1407 12.051L26.1523 13.7737C23.6718 15.2073 20.5897 15.2073 18.1092 13.7737L13.4646 11.09C12.7849 10.6994 12.0349 10.5002 11.2731 10.5002L11.2653 10.508Z" fill="url(#paint0_linear_1824_559)"/>
<path d="M7.89424 37.9304C7.21064 37.9304 6.51922 37.8405 5.84343 37.6569C3.81214 37.114 2.11289 35.8093 1.05818 33.985C0.00738022 32.1647 -0.273875 30.0435 0.27301 28.0122C0.815989 25.9849 2.11289 24.2895 3.92933 23.2387L6.71844 21.477L11.4685 18.7347C13.1834 17.7425 14.2498 15.8987 14.2498 13.9143V7.62514H14.2537C14.3866 3.3985 17.8671 0 22.1289 0C26.3907 0 30.0079 3.53522 30.0079 7.87905V13.9182C30.0079 15.8987 31.0744 17.7464 32.7892 18.7386L36.9338 21.1332C38.7581 22.184 40.0589 23.8833 40.6058 25.9184C41.1488 27.9497 40.8714 30.0748 39.8167 31.899C38.7659 33.7233 37.0667 35.0241 35.0315 35.571C32.9963 36.1139 30.8751 35.8366 29.0509 34.7819L24.9024 32.3873C23.1875 31.3951 21.0546 31.3951 19.3359 32.3873L16.8827 33.8053L11.8162 36.8835C10.6013 37.5827 9.25365 37.9421 7.89034 37.9421L7.89424 37.9304ZM11.2107 22.891L5.67936 26.2388C4.65981 26.8247 3.93323 27.7739 3.62854 28.9107C3.32385 30.0474 3.4801 31.231 4.06605 32.2506C4.652 33.2701 5.60123 33.9967 6.73797 34.3014C7.8669 34.6022 9.04661 34.4499 10.0623 33.8717L14.242 31.3326V31.3053L17.5975 29.3677C20.3867 27.7583 23.8516 27.7583 26.6407 29.3677L30.7892 31.7623C31.8087 32.3483 32.9924 32.5045 34.1291 32.2037C35.2658 31.899 36.2112 31.1724 36.801 30.1529C37.387 29.1333 37.5432 27.9497 37.2424 26.813C36.9377 25.6763 36.2112 24.7309 35.1916 24.1411L31.047 21.7465C28.2579 20.1371 26.5235 17.1331 26.5235 13.9143V7.87515C26.5235 5.44932 24.5508 3.47663 22.125 3.47663C19.6992 3.47663 17.7265 5.44932 17.7265 7.87515V13.4846V13.9104C17.7265 17.1331 15.9921 20.1332 13.2029 21.7426L11.2107 22.891Z" fill="black"/>
<mask id="mask0_1824_559" style="mask-type:luminance" maskUnits="userSpaceOnUse" x="12" y="25" width="8" height="12">
<path d="M19.1835 26.1919C19.0819 28.2544 20.0937 30.2349 19.6835 32.3326C19.2499 34.5475 16.7577 37.1608 14.3631 35.9616C8.78096 33.1686 14.4139 23.227 19.1835 26.1919C14.4139 23.227 19.0819 28.2544 19.1835 26.1919Z" fill="white"/>
</mask>
<g mask="url(#mask0_1824_559)">
<path d="M7.89424 37.9304C7.21064 37.9304 6.51922 37.8405 5.84343 37.6569C3.81214 37.114 2.11289 35.8093 1.05818 33.985C0.00738022 32.1647 -0.273875 30.0435 0.27301 28.0122C0.815989 25.9849 2.11289 24.2895 3.92933 23.2387L6.71844 21.477L11.4685 18.7347C13.1834 17.7425 14.2498 15.8987 14.2498 13.9143V7.62514H14.2537C14.3866 3.3985 17.8671 0 22.1289 0C26.3907 0 30.0079 3.53522 30.0079 7.87905V13.9182C30.0079 15.8987 31.0744 17.7464 32.7892 18.7386L36.9338 21.1332C38.7581 22.184 40.0589 23.8833 40.6058 25.9184C41.1488 27.9497 40.8714 30.0748 39.8167 31.899C38.7659 33.7233 37.0667 35.0241 35.0315 35.571C32.9963 36.1139 30.8751 35.8366 29.0509 34.7819L24.9024 32.3873C23.1875 31.3951 21.0546 31.3951 19.3359 32.3873L16.8827 33.8053L11.8162 36.8835C10.6013 37.5827 9.25365 37.9421 7.89034 37.9421L7.89424 37.9304ZM11.2107 22.891L5.67936 26.2388C4.65981 26.8247 3.93323 27.7739 3.62854 28.9107C3.32385 30.0474 3.4801 31.231 4.06605 32.2506C4.652 33.2701 5.60123 33.9967 6.73797 34.3014C7.8669 34.6022 9.04661 34.4499 10.0623 33.8717L14.242 31.3326V31.3053L17.5975 29.3677C20.3867 27.7583 23.8516 27.7583 26.6407 29.3677L30.7892 31.7623C31.8087 32.3483 32.9924 32.5045 34.1291 32.2037C35.2658 31.899 36.2112 31.1724 36.801 30.1529C37.387 29.1333 37.5432 27.9497 37.2424 26.813C36.9377 25.6763 36.2112 24.7309 35.1916 24.1411L31.047 21.7465C28.2579 20.1371 26.5235 17.1331 26.5235 13.9143V7.87515C26.5235 5.44932 24.5508 3.47663 22.125 3.47663C19.6992 3.47663 17.7265 5.44932 17.7265 7.87515V13.4846V13.9104C17.7265 17.1331 15.9921 20.1332 13.2029 21.7426L11.2107 22.891Z" fill="black"/>
<path d="M22.1249 42.864C17.7811 42.864 14.2458 39.3288 14.2458 34.985V28.3677C14.2458 26.7427 13.3708 25.227 11.9646 24.4145L7.31994 21.7348C3.55815 19.5628 2.26516 14.7346 4.43707 10.9728C5.48788 9.14858 7.18713 7.84778 9.22232 7.30089C11.2536 6.75791 13.3786 7.03526 15.2029 8.08997L19.8475 10.7736C21.2538 11.5861 23.0038 11.5861 24.4101 10.7736L27.3516 9.07436L32.8282 5.44929C34.6525 4.39849 36.7736 4.11724 38.8088 4.66412C40.8401 5.2071 42.5393 6.51181 43.594 8.33607C44.6448 10.1603 44.9261 12.2815 44.3792 14.3166C43.8401 16.3323 42.5511 18.0198 40.7542 19.0745L34.8517 22.9457L32.2852 24.4262C30.879 25.2387 30.004 26.7544 30.004 28.3794V34.9928C30.004 39.3366 26.4687 42.8719 22.1249 42.8719V42.864ZM11.2653 10.508C10.8825 10.508 10.4997 10.5588 10.1208 10.6603C8.98403 10.965 8.0387 11.6916 7.44885 12.7111C6.23789 14.8127 6.95665 17.5081 9.05825 18.7191L13.7029 21.3988C16.1834 22.8324 17.7264 25.5004 17.7264 28.3638V34.9811C17.7264 37.4069 19.6991 39.3796 22.1249 39.3796C24.5507 39.3796 26.5234 37.4069 26.5234 34.9811V28.3677C26.5234 25.5044 28.0664 22.8324 30.5469 21.4027L33.0704 19.9457L38.969 16.0784C39.9885 15.4924 40.7151 14.5432 41.0198 13.4065C41.3245 12.2697 41.1682 11.0861 40.5823 10.0666C39.9963 9.04702 39.0471 8.32044 37.9103 8.01575C36.7931 7.71496 35.6212 7.8634 34.6134 8.42982L29.1407 12.051L26.1523 13.7737C23.6718 15.2073 20.5897 15.2073 18.1092 13.7737L13.4646 11.09C12.7849 10.6994 12.0349 10.5002 11.2731 10.5002L11.2653 10.508Z" fill="url(#paint1_linear_1824_559)"/>
</g>
<mask id="mask1_1824_559" style="mask-type:luminance" maskUnits="userSpaceOnUse" x="26" y="17" width="15" height="11">
<path d="M27.4219 22.6332C27.1211 20.1254 29.9259 18.7816 31.8751 18.2035C33.1095 17.8402 34.4806 17.4417 35.7775 17.4066C37.5979 17.3597 38.551 18.5707 39.3987 20.1059C40.2972 21.7387 40.7464 23.4926 39.8753 25.2427C39.0745 26.8482 37.6604 27.2622 35.9807 27.3951C33.8283 27.563 31.6251 27.1451 29.7813 25.9927C28.1993 25.0044 26.6367 22.5981 27.4219 22.6332C26.6367 22.5981 27.1211 20.1254 27.4219 22.6332Z" fill="white"/>
</mask>
<g mask="url(#mask1_1824_559)">
<path d="M7.89424 37.9304C7.21064 37.9304 6.51922 37.8405 5.84343 37.6569C3.81214 37.114 2.11289 35.8093 1.05818 33.985C0.00738022 32.1647 -0.273875 30.0435 0.27301 28.0122C0.815989 25.9849 2.11289 24.2895 3.92933 23.2387L6.71844 21.477L11.4685 18.7347C13.1834 17.7425 14.2498 15.8987 14.2498 13.9143V7.62514H14.2537C14.3866 3.3985 17.8671 0 22.1289 0C26.3907 0 30.0079 3.53522 30.0079 7.87905V13.9182C30.0079 15.8987 31.0744 17.7464 32.7892 18.7386L36.9338 21.1332C38.7581 22.184 40.0589 23.8833 40.6058 25.9184C41.1488 27.9497 40.8714 30.0748 39.8167 31.899C38.7659 33.7233 37.0667 35.0241 35.0315 35.571C32.9963 36.1139 30.8751 35.8366 29.0509 34.7819L24.9024 32.3873C23.1875 31.3951 21.0546 31.3951 19.3359 32.3873L16.8827 33.8053L11.8162 36.8835C10.6013 37.5827 9.25365 37.9421 7.89034 37.9421L7.89424 37.9304ZM11.2107 22.891L5.67936 26.2388C4.65981 26.8247 3.93323 27.7739 3.62854 28.9107C3.32385 30.0474 3.4801 31.231 4.06605 32.2506C4.652 33.2701 5.60123 33.9967 6.73797 34.3014C7.8669 34.6022 9.04661 34.4499 10.0623 33.8717L14.242 31.3326V31.3053L17.5975 29.3677C20.3867 27.7583 23.8516 27.7583 26.6407 29.3677L30.7892 31.7623C31.8087 32.3483 32.9924 32.5045 34.1291 32.2037C35.2658 31.899 36.2112 31.1724 36.801 30.1529C37.387 29.1333 37.5432 27.9497 37.2424 26.813C36.9377 25.6763 36.2112 24.7309 35.1916 24.1411L31.047 21.7465C28.2579 20.1371 26.5235 17.1331 26.5235 13.9143V7.87515C26.5235 5.44932 24.5508 3.47663 22.125 3.47663C19.6992 3.47663 17.7265 5.44932 17.7265 7.87515V13.4846V13.9104C17.7265 17.1331 15.9921 20.1332 13.2029 21.7426L11.2107 22.891Z" fill="black"/>
<path d="M22.1249 42.864C17.7811 42.864 14.2458 39.3288 14.2458 34.985V28.3677C14.2458 26.7427 13.3708 25.227 11.9646 24.4145L7.31994 21.7348C3.55815 19.5628 2.26516 14.7346 4.43707 10.9728C5.48788 9.14858 7.18713 7.84778 9.22232 7.30089C11.2536 6.75791 13.3786 7.03526 15.2029 8.08997L19.8475 10.7736C21.2538 11.5861 23.0038 11.5861 24.4101 10.7736L27.3516 9.07436L32.8282 5.44929C34.6525 4.39849 36.7736 4.11724 38.8088 4.66412C40.8401 5.2071 42.5393 6.51181 43.594 8.33607C44.6448 10.1603 44.9261 12.2815 44.3792 14.3166C43.8401 16.3323 42.5511 18.0198 40.7542 19.0745L34.8517 22.9457L32.2852 24.4262C30.879 25.2387 30.004 26.7544 30.004 28.3794V34.9928C30.004 39.3366 26.4687 42.8719 22.1249 42.8719V42.864ZM11.2653 10.508C10.8825 10.508 10.4997 10.5588 10.1208 10.6603C8.98403 10.965 8.0387 11.6916 7.44885 12.7111C6.23789 14.8127 6.95665 17.5081 9.05825 18.7191L13.7029 21.3988C16.1834 22.8324 17.7264 25.5004 17.7264 28.3638V34.9811C17.7264 37.4069 19.6991 39.3796 22.1249 39.3796C24.5507 39.3796 26.5234 37.4069 26.5234 34.9811V28.3677C26.5234 25.5044 28.0664 22.8324 30.5469 21.4027L33.0704 19.9457L38.969 16.0784C39.9885 15.4924 40.7151 14.5432 41.0198 13.4065C41.3245 12.2697 41.1682 11.0861 40.5823 10.0666C39.9963 9.04702 39.0471 8.32044 37.9103 8.01575C36.7931 7.71496 35.6212 7.8634 34.6134 8.42982L29.1407 12.051L26.1523 13.7737C23.6718 15.2073 20.5897 15.2073 18.1092 13.7737L13.4646 11.09C12.7849 10.6994 12.0349 10.5002 11.2731 10.5002L11.2653 10.508Z" fill="url(#paint2_linear_1824_559)"/>
</g>
<mask id="mask2_1824_559" style="mask-type:luminance" maskUnits="userSpaceOnUse" x="11" y="6" width="11" height="10">
<path d="M19.8397 8.21503C18.8045 6.84782 15.9841 6.11733 14.3161 6.05874C12.8591 6.00796 11.5114 7.69158 11.3044 9.11739C11.1091 10.4768 11.8591 12.9026 12.7849 13.9026C13.738 14.93 15.7341 15.9652 17.1756 15.7191C19.324 15.348 20.203 13.5433 20.867 11.7424C21.3671 10.3869 21.035 9.66818 20.0467 8.4416C19.578 7.85955 19.0545 7.29704 19.8397 8.21503C19.0545 7.29704 18.8045 6.84782 19.8397 8.21503Z" fill="white"/>
</mask>
<g mask="url(#mask2_1824_559)">
<path d="M7.89424 37.9304C7.21064 37.9304 6.51922 37.8405 5.84343 37.6569C3.81214 37.114 2.11289 35.8093 1.05818 33.985C0.00738022 32.1647 -0.273875 30.0435 0.27301 28.0122C0.815989 25.9849 2.11289 24.2895 3.92933 23.2387L6.71844 21.477L11.4685 18.7347C13.1834 17.7425 14.2498 15.8987 14.2498 13.9143V7.62514H14.2537C14.3866 3.3985 17.8671 0 22.1289 0C26.3907 0 30.0079 3.53522 30.0079 7.87905V13.9182C30.0079 15.8987 31.0744 17.7464 32.7892 18.7386L36.9338 21.1332C38.7581 22.184 40.0589 23.8833 40.6058 25.9184C41.1488 27.9497 40.8714 30.0748 39.8167 31.899C38.7659 33.7233 37.0667 35.0241 35.0315 35.571C32.9963 36.1139 30.8751 35.8366 29.0509 34.7819L24.9024 32.3873C23.1875 31.3951 21.0546 31.3951 19.3359 32.3873L16.8827 33.8053L11.8162 36.8835C10.6013 37.5827 9.25365 37.9421 7.89034 37.9421L7.89424 37.9304ZM11.2107 22.891L5.67936 26.2388C4.65981 26.8247 3.93323 27.7739 3.62854 28.9107C3.32385 30.0474 3.4801 31.231 4.06605 32.2506C4.652 33.2701 5.60123 33.9967 6.73797 34.3014C7.8669 34.6022 9.04661 34.4499 10.0623 33.8717L14.242 31.3326V31.3053L17.5975 29.3677C20.3867 27.7583 23.8516 27.7583 26.6407 29.3677L30.7892 31.7623C31.8087 32.3483 32.9924 32.5045 34.1291 32.2037C35.2658 31.899 36.2112 31.1724 36.801 30.1529C37.387 29.1333 37.5432 27.9497 37.2424 26.813C36.9377 25.6763 36.2112 24.7309 35.1916 24.1411L31.047 21.7465C28.2579 20.1371 26.5235 17.1331 26.5235 13.9143V7.87515C26.5235 5.44932 24.5508 3.47663 22.125 3.47663C19.6992 3.47663 17.7265 5.44932 17.7265 7.87515V13.4846V13.9104C17.7265 17.1331 15.9921 20.1332 13.2029 21.7426L11.2107 22.891Z" fill="black"/>
<path d="M22.1249 42.864C17.7811 42.864 14.2458 39.3288 14.2458 34.985V28.3677C14.2458 26.7427 13.3708 25.227 11.9646 24.4145L7.31994 21.7348C3.55815 19.5628 2.26516 14.7346 4.43707 10.9728C5.48788 9.14858 7.18713 7.84778 9.22232 7.30089C11.2536 6.75791 13.3786 7.03526 15.2029 8.08997L19.8475 10.7736C21.2538 11.5861 23.0038 11.5861 24.4101 10.7736L27.3516 9.07436L32.8282 5.44929C34.6525 4.39849 36.7736 4.11724 38.8088 4.66412C40.8401 5.2071 42.5393 6.51181 43.594 8.33607C44.6448 10.1603 44.9261 12.2815 44.3792 14.3166C43.8401 16.3323 42.5511 18.0198 40.7542 19.0745L34.8517 22.9457L32.2852 24.4262C30.879 25.2387 30.004 26.7544 30.004 28.3794V34.9928C30.004 39.3366 26.4687 42.8719 22.1249 42.8719V42.864ZM11.2653 10.508C10.8825 10.508 10.4997 10.5588 10.1208 10.6603C8.98403 10.965 8.0387 11.6916 7.44885 12.7111C6.23789 14.8127 6.95665 17.5081 9.05825 18.7191L13.7029 21.3988C16.1834 22.8324 17.7264 25.5004 17.7264 28.3638V34.9811C17.7264 37.4069 19.6991 39.3796 22.1249 39.3796C24.5507 39.3796 26.5234 37.4069 26.5234 34.9811V28.3677C26.5234 25.5044 28.0664 22.8324 30.5469 21.4027L33.0704 19.9457L38.969 16.0784C39.9885 15.4924 40.7151 14.5432 41.0198 13.4065C41.3245 12.2697 41.1682 11.0861 40.5823 10.0666C39.9963 9.04702 39.0471 8.32044 37.9103 8.01575C36.7931 7.71496 35.6212 7.8634 34.6134 8.42982L29.1407 12.051L26.1523 13.7737C23.6718 15.2073 20.5897 15.2073 18.1092 13.7737L13.4646 11.09C12.7849 10.6994 12.0349 10.5002 11.2731 10.5002L11.2653 10.508Z" fill="url(#paint3_linear_1824_559)"/>
</g>
<path d="M176.42 12.09V33H173.69V23.52H163.04V33H160.31V12.09H163.04V21.27H173.69V12.09H176.42ZM195.661 16.56V33H192.931V30.57C192.411 31.41 191.681 32.07 190.741 32.55C189.821 33.01 188.801 33.24 187.681 33.24C186.401 33.24 185.251 32.98 184.231 32.46C183.211 31.92 182.401 31.12 181.801 30.06C181.221 29 180.931 27.71 180.931 26.19V16.56H183.631V25.83C183.631 27.45 184.041 28.7 184.861 29.58C185.681 30.44 186.801 30.87 188.221 30.87C189.681 30.87 190.831 30.42 191.671 29.52C192.511 28.62 192.931 27.31 192.931 25.59V16.56H195.661ZM203.001 19.62C203.561 18.64 204.381 17.84 205.461 17.22C206.541 16.6 207.771 16.29 209.151 16.29C210.631 16.29 211.961 16.64 213.141 17.34C214.321 18.04 215.251 19.03 215.931 20.31C216.611 21.57 216.951 23.04 216.951 24.72C216.951 26.38 216.611 27.86 215.931 29.16C215.251 30.46 214.311 31.47 213.111 32.19C211.931 32.91 210.611 33.27 209.151 33.27C207.731 33.27 206.481 32.96 205.401 32.34C204.341 31.72 203.541 30.93 203.001 29.97V33H200.271V10.8H203.001V19.62ZM214.161 24.72C214.161 23.48 213.911 22.4 213.411 21.48C212.911 20.56 212.231 19.86 211.371 19.38C210.531 18.9 209.601 18.66 208.581 18.66C207.581 18.66 206.651 18.91 205.791 19.41C204.951 19.89 204.271 20.6 203.751 21.54C203.251 22.46 203.001 23.53 203.001 24.75C203.001 25.99 203.251 27.08 203.751 28.02C204.271 28.94 204.951 29.65 205.791 30.15C206.651 30.63 207.581 30.87 208.581 30.87C209.601 30.87 210.531 30.63 211.371 30.15C212.231 29.65 212.911 28.94 213.411 28.02C213.911 27.08 214.161 25.98 214.161 24.72Z" fill="black"/>
<path d="M58.66 33.21C56.2 33.21 54.18 32.63 52.6 31.47C51.02 30.29 50.17 28.61 50.05 26.43H56.32C56.38 27.17 56.6 27.71 56.98 28.05C57.36 28.39 57.85 28.56 58.45 28.56C58.99 28.56 59.43 28.43 59.77 28.17C60.13 27.89 60.31 27.51 60.31 27.03C60.31 26.41 60.02 25.93 59.44 25.59C58.86 25.25 57.92 24.87 56.62 24.45C55.24 23.99 54.12 23.55 53.26 23.13C52.42 22.69 51.68 22.06 51.04 21.24C50.42 20.4 50.11 19.31 50.11 17.97C50.11 16.61 50.45 15.45 51.13 14.49C51.81 13.51 52.75 12.77 53.95 12.27C55.15 11.77 56.51 11.52 58.03 11.52C60.49 11.52 62.45 12.1 63.91 13.26C65.39 14.4 66.18 16.01 66.28 18.09H59.89C59.87 17.45 59.67 16.97 59.29 16.65C58.93 16.33 58.46 16.17 57.88 16.17C57.44 16.17 57.08 16.3 56.8 16.56C56.52 16.82 56.38 17.19 56.38 17.67C56.38 18.07 56.53 18.42 56.83 18.72C57.15 19 57.54 19.25 58 19.47C58.46 19.67 59.14 19.93 60.04 20.25C61.38 20.71 62.48 21.17 63.34 21.63C64.22 22.07 64.97 22.7 65.59 23.52C66.23 24.32 66.55 25.34 66.55 26.58C66.55 27.84 66.23 28.97 65.59 29.97C64.97 30.97 64.06 31.76 62.86 32.34C61.68 32.92 60.28 33.21 58.66 33.21ZM77.1135 33.21C75.4335 33.21 73.9235 32.86 72.5835 32.16C71.2635 31.46 70.2235 30.46 69.4635 29.16C68.7035 27.86 68.3235 26.33 68.3235 24.57C68.3235 22.83 68.7035 21.31 69.4635 20.01C70.2435 18.71 71.2935 17.71 72.6135 17.01C73.9535 16.31 75.4635 15.96 77.1435 15.96C78.8235 15.96 80.3235 16.31 81.6435 17.01C82.9835 17.71 84.0335 18.71 84.7935 20.01C85.5735 21.31 85.9635 22.83 85.9635 24.57C85.9635 26.31 85.5735 27.84 84.7935 29.16C84.0335 30.46 82.9835 31.46 81.6435 32.16C80.3035 32.86 78.7935 33.21 77.1135 33.21ZM77.1135 28.11C77.9335 28.11 78.6135 27.81 79.1535 27.21C79.7135 26.59 79.9935 25.71 79.9935 24.57C79.9935 23.43 79.7135 22.56 79.1535 21.96C78.6135 21.36 77.9435 21.06 77.1435 21.06C76.3435 21.06 75.6735 21.36 75.1335 21.96C74.5935 22.56 74.3235 23.43 74.3235 24.57C74.3235 25.73 74.5835 26.61 75.1035 27.21C75.6235 27.81 76.2935 28.11 77.1135 28.11ZM94.2358 10.8V33H88.3558V10.8H94.2358ZM96.6243 24.57C96.6243 22.83 96.9343 21.31 97.5543 20.01C98.1943 18.71 99.0543 17.71 100.134 17.01C101.234 16.31 102.454 15.96 103.794 15.96C104.954 15.96 105.954 16.19 106.794 16.65C107.634 17.11 108.284 17.73 108.744 18.51V16.17H114.624V33H108.744V30.66C108.284 31.44 107.624 32.06 106.764 32.52C105.924 32.98 104.934 33.21 103.794 33.21C102.454 33.21 101.234 32.86 100.134 32.16C99.0543 31.46 98.1943 30.46 97.5543 29.16C96.9343 27.84 96.6243 26.31 96.6243 24.57ZM108.744 24.57C108.744 23.49 108.444 22.64 107.844 22.02C107.264 21.4 106.544 21.09 105.684 21.09C104.804 21.09 104.074 21.4 103.494 22.02C102.914 22.62 102.624 23.47 102.624 24.57C102.624 25.65 102.914 26.51 103.494 27.15C104.074 27.77 104.804 28.08 105.684 28.08C106.544 28.08 107.264 27.77 107.844 27.15C108.444 26.53 108.744 25.67 108.744 24.57ZM128.985 16.02C130.925 16.02 132.465 16.67 133.605 17.97C134.745 19.25 135.315 20.99 135.315 23.19V33H129.435V23.97C129.435 23.01 129.185 22.26 128.685 21.72C128.185 21.16 127.515 20.88 126.675 20.88C125.795 20.88 125.105 21.16 124.605 21.72C124.105 22.26 123.855 23.01 123.855 23.97V33H117.975V16.17H123.855V18.57C124.375 17.81 125.075 17.2 125.955 16.74C126.835 16.26 127.845 16.02 128.985 16.02ZM137.581 24.57C137.581 22.83 137.891 21.31 138.511 20.01C139.151 18.71 140.011 17.71 141.091 17.01C142.191 16.31 143.411 15.96 144.751 15.96C145.911 15.96 146.911 16.19 147.751 16.65C148.591 17.11 149.241 17.73 149.701 18.51V16.17H155.581V33H149.701V30.66C149.241 31.44 148.581 32.06 147.721 32.52C146.881 32.98 145.891 33.21 144.751 33.21C143.411 33.21 142.191 32.86 141.091 32.16C140.011 31.46 139.151 30.46 138.511 29.16C137.891 27.84 137.581 26.31 137.581 24.57ZM149.701 24.57C149.701 23.49 149.401 22.64 148.801 22.02C148.221 21.4 147.501 21.09 146.641 21.09C145.761 21.09 145.031 21.4 144.451 22.02C143.871 22.62 143.581 23.47 143.581 24.57C143.581 25.65 143.871 26.51 144.451 27.15C145.031 27.77 145.761 28.08 146.641 28.08C147.501 28.08 148.221 27.77 148.801 27.15C149.401 26.53 149.701 25.67 149.701 24.57Z" fill="black"/>
<defs>
<linearGradient id="paint0_linear_1824_559" x1="24.0176" y1="-2.61906" x2="24.0176" y2="39.5119" gradientUnits="userSpaceOnUse">
<stop stop-color="#FF845A"/>
<stop offset="0.3" stop-color="#FD49AD"/>
<stop offset="0.68" stop-color="#395DF0"/>
<stop offset="1" stop-color="#0CDAC4"/>
</linearGradient>
<linearGradient id="paint1_linear_1824_559" x1="24.0176" y1="-2.61906" x2="24.0176" y2="39.5119" gradientUnits="userSpaceOnUse">
<stop stop-color="#FF845A"/>
<stop offset="0.3" stop-color="#FD49AD"/>
<stop offset="0.68" stop-color="#395DF0"/>
<stop offset="1" stop-color="#0CDAC4"/>
</linearGradient>
<linearGradient id="paint2_linear_1824_559" x1="24.0176" y1="-2.61906" x2="24.0176" y2="39.5119" gradientUnits="userSpaceOnUse">
<stop stop-color="#FF845A"/>
<stop offset="0.3" stop-color="#FD49AD"/>
<stop offset="0.68" stop-color="#395DF0"/>
<stop offset="1" stop-color="#0CDAC4"/>
</linearGradient>
<linearGradient id="paint3_linear_1824_559" x1="24.0176" y1="-2.61906" x2="24.0176" y2="39.5119" gradientUnits="userSpaceOnUse">
<stop stop-color="#FF845A"/>
<stop offset="0.3" stop-color="#FD49AD"/>
<stop offset="0.68" stop-color="#395DF0"/>
<stop offset="1" stop-color="#0CDAC4"/>
</linearGradient>
</defs>
</svg>
