<svg width="96" height="20" viewBox="0 0 96 20" fill="none" xmlns="http://www.w3.org/2000/svg">
<path fill-rule="evenodd" clip-rule="evenodd" d="M16.1629 20L10.7512 16.5726H16.1629C17.1315 16.5726 17.6104 15.9234 17.7701 15.6466C17.9298 15.3699 18.2597 14.6248 17.7701 13.7839L12.3417 4.38531C11.852 3.54444 11.0538 3.45929 10.7344 3.45929C10.4151 3.45929 9.60617 3.54444 9.1272 4.38531L3.69878 13.7839C3.20915 14.6248 3.53912 15.3699 3.69878 15.6466C3.70141 15.6512 3.70414 15.6559 3.70695 15.6606L0.974146 17.7442L7.41374 15.7857L7.41162 15.7832L15.7581 13.2935L10.6467 16.5726H10.7176L5.30602 20C3.3901 20 1.67642 19.0101 0.718467 17.3497C-0.239489 15.6892 -0.239489 13.7094 0.718467 12.049L6.14689 2.65035C7.10484 0.989888 8.81852 0 10.7344 0C12.6503 0 14.364 0.989888 15.322 2.65035L20.7504 12.049C21.7084 13.7094 21.7084 15.6892 20.7504 17.3497C19.7924 19.0101 18.0681 20 16.1629 20ZM10.7176 16.5726L10.7344 16.562L10.7512 16.5726H10.7344H10.7176Z" fill="url(#paint0_linear_267_376)"/>
<path d="M38.5959 13.9312H35.1786H31.7613L30.6346 16.3951H27.9602L33.829 3.32034H36.5282L42.3969 16.3951H39.7102L38.5959 13.9312ZM35.1786 6.06902L32.7518 11.6407H35.1786H37.6053L35.1786 6.06902Z" fill="white"/>
<path d="M50.9892 7.17166L47.0643 16.4454H44.6004L40.6631 7.17166H43.1518L44.427 10.2175L45.8509 14.1053L47.25 10.2546L48.5253 7.17166H50.9892Z" fill="white"/>
<path d="M59.3959 7.19515H61.5874V16.4069H59.433L59.3216 15.0574C58.8016 16.1469 57.3653 16.6669 56.3377 16.6793C53.6138 16.7041 51.5956 15.0202 51.5956 11.7887C51.5956 8.60664 53.7128 6.94753 56.3996 6.97229C57.6377 6.97229 58.814 7.55421 59.334 8.47044L59.3959 7.19515ZM53.8614 11.7887C53.8614 13.5468 55.0748 14.5869 56.5853 14.5869C60.1759 14.5869 60.1759 9.00284 56.5853 9.00284C55.0748 9.00284 53.8614 10.0305 53.8614 11.7887Z" fill="white"/>
<path d="M65.6248 7.19598V12.0124C65.6248 13.4115 66.3925 14.4763 67.8535 14.4763C69.2526 14.4763 70.2059 13.3 70.2059 11.9009V7.19598H72.4717V16.4325H70.4412L70.2926 15.182C69.3392 16.1106 68.4601 16.5687 67.1725 16.5687C64.9686 16.5687 63.359 14.9096 63.359 12.0495V7.20837H65.6248V7.19598Z" fill="white"/>
<path d="M76.7435 3.34543V16.4078H74.4777V3.34543H76.7435Z" fill="white"/>
<path d="M81.9549 4.5961V7.20859H84.4931V9.16485H81.9301V13.1393C81.9301 14.0184 82.413 14.4517 83.1311 14.4517C83.4902 14.4517 83.8988 14.3403 84.2331 14.1669L84.8645 16.1108C84.2083 16.3708 83.6635 16.4823 82.9826 16.507C80.9891 16.5813 79.6767 15.4422 79.6767 13.1393V9.16485H77.9557V7.20859H79.6767L81.9549 4.5961Z" fill="white"/>
<path d="M95.3525 11.802C95.3525 14.4516 93.5448 16.606 90.5485 16.606C87.5646 16.606 85.7693 14.4516 85.7693 11.802C85.7693 9.16473 87.6017 6.99799 90.5361 6.99799C93.4705 7.01037 95.3525 9.17712 95.3525 11.802ZM88.0475 11.802C88.0475 13.2011 88.8894 14.5135 90.5485 14.5135C92.2076 14.5135 93.0496 13.2011 93.0496 11.802C93.0496 10.4153 92.0838 9.07806 90.5485 9.07806C88.9142 9.07806 88.0475 10.4276 88.0475 11.802Z" fill="white"/>
<defs>
<linearGradient id="paint0_linear_267_376" x1="10.7344" y1="-3.62264" x2="10.7344" y2="18.26" gradientUnits="userSpaceOnUse">
<stop stop-color="#FF845A"/>
<stop offset="0.2989" stop-color="#FD49AD"/>
<stop offset="0.6788" stop-color="#395DF0"/>
<stop offset="1" stop-color="#0CDAC4"/>
</linearGradient>
</defs>
</svg>
