<svg width="219" height="46" viewBox="0 0 219 46" fill="none" xmlns="http://www.w3.org/2000/svg">
<path d="M22.1249 45.864C17.7811 45.864 14.2458 42.3288 14.2458 37.985V31.3677C14.2458 29.7427 13.3708 28.227 11.9646 27.4145L7.31994 24.7348C3.55815 22.5628 2.26516 17.7346 4.43707 13.9728C5.48788 12.1486 7.18713 10.8478 9.22232 10.3009C11.2536 9.75791 13.3786 10.0353 15.2029 11.09L19.8475 13.7736C21.2538 14.5861 23.0038 14.5861 24.4101 13.7736L27.3516 12.0744L32.8282 8.44929C34.6525 7.39849 36.7736 7.11724 38.8088 7.66412C40.8401 8.2071 42.5393 9.51181 43.594 11.3361C44.6448 13.1603 44.9261 15.2815 44.3792 17.3166C43.8401 19.3323 42.5511 21.0198 40.7542 22.0745L34.8517 25.9457L32.2852 27.4262C30.879 28.2387 30.004 29.7544 30.004 31.3794V37.9928C30.004 42.3366 26.4687 45.8719 22.1249 45.8719V45.864ZM11.2653 13.508C10.8825 13.508 10.4997 13.5588 10.1208 13.6603C8.98403 13.965 8.0387 14.6916 7.44885 15.7111C6.23789 17.8127 6.95665 20.5081 9.05825 21.7191L13.7029 24.3988C16.1834 25.8324 17.7264 28.5004 17.7264 31.3638V37.9811C17.7264 40.4069 19.6991 42.3796 22.1249 42.3796C24.5507 42.3796 26.5234 40.4069 26.5234 37.9811V31.3677C26.5234 28.5044 28.0664 25.8324 30.5469 24.4027L33.0704 22.9457L38.969 19.0784C39.9885 18.4924 40.7151 17.5432 41.0198 16.4065C41.3245 15.2697 41.1682 14.0861 40.5823 13.0666C39.9963 12.047 39.0471 11.3204 37.9103 11.0157C36.7931 10.715 35.6212 10.8634 34.6134 11.4298L29.1407 15.051L26.1523 16.7737C23.6718 18.2073 20.5897 18.2073 18.1092 16.7737L13.4646 14.09C12.7849 13.6994 12.0349 13.5002 11.2731 13.5002L11.2653 13.508Z" fill="url(#paint0_linear_1823_496)"/>
<path d="M7.89424 40.9304C7.21064 40.9304 6.51922 40.8405 5.84343 40.6569C3.81214 40.114 2.11289 38.8093 1.05818 36.985C0.00738022 35.1647 -0.273875 33.0435 0.27301 31.0122C0.815989 28.9849 2.11289 27.2895 3.92933 26.2387L6.71844 24.477L11.4685 21.7347C13.1834 20.7425 14.2498 18.8987 14.2498 16.9143V10.6251H14.2537C14.3866 6.3985 17.8671 3 22.1289 3C26.3907 3 30.0079 6.53522 30.0079 10.8791V16.9182C30.0079 18.8987 31.0744 20.7464 32.7892 21.7386L36.9338 24.1332C38.7581 25.184 40.0589 26.8833 40.6058 28.9184C41.1488 30.9497 40.8714 33.0748 39.8167 34.899C38.7659 36.7233 37.0667 38.0241 35.0315 38.571C32.9963 39.1139 30.8751 38.8366 29.0509 37.7819L24.9024 35.3873C23.1875 34.3951 21.0546 34.3951 19.3359 35.3873L16.8827 36.8053L11.8162 39.8835C10.6013 40.5827 9.25365 40.9421 7.89034 40.9421L7.89424 40.9304ZM11.2107 25.891L5.67936 29.2388C4.65981 29.8247 3.93323 30.7739 3.62854 31.9107C3.32385 33.0474 3.4801 34.231 4.06605 35.2506C4.652 36.2701 5.60123 36.9967 6.73797 37.3014C7.8669 37.6022 9.04661 37.4499 10.0623 36.8717L14.242 34.3326V34.3053L17.5975 32.3677C20.3867 30.7583 23.8516 30.7583 26.6407 32.3677L30.7892 34.7623C31.8087 35.3483 32.9924 35.5045 34.1291 35.2037C35.2658 34.899 36.2112 34.1724 36.801 33.1529C37.387 32.1333 37.5432 30.9497 37.2424 29.813C36.9377 28.6763 36.2112 27.7309 35.1916 27.1411L31.047 24.7465C28.2579 23.1371 26.5235 20.1331 26.5235 16.9143V10.8751C26.5235 8.44932 24.5508 6.47663 22.125 6.47663C19.6992 6.47663 17.7265 8.44932 17.7265 10.8751V16.4846V16.9104C17.7265 20.1331 15.9921 23.1332 13.2029 24.7426L11.2107 25.891Z" fill="white"/>
<mask id="mask0_1823_496" style="mask-type:luminance" maskUnits="userSpaceOnUse" x="12" y="28" width="8" height="12">
<path d="M19.1835 29.1919C19.0819 31.2544 20.0937 33.2349 19.6835 35.3326C19.2499 37.5475 16.7577 40.1608 14.3631 38.9616C8.78096 36.1686 14.4139 26.227 19.1835 29.1919C14.4139 26.227 19.0819 31.2544 19.1835 29.1919Z" fill="white"/>
</mask>
<g mask="url(#mask0_1823_496)">
<path d="M7.89424 40.9304C7.21064 40.9304 6.51922 40.8405 5.84343 40.6569C3.81214 40.114 2.11289 38.8093 1.05818 36.985C0.00738022 35.1647 -0.273875 33.0435 0.27301 31.0122C0.815989 28.9849 2.11289 27.2895 3.92933 26.2387L6.71844 24.477L11.4685 21.7347C13.1834 20.7425 14.2498 18.8987 14.2498 16.9143V10.6251H14.2537C14.3866 6.3985 17.8671 3 22.1289 3C26.3907 3 30.0079 6.53522 30.0079 10.8791V16.9182C30.0079 18.8987 31.0744 20.7464 32.7892 21.7386L36.9338 24.1332C38.7581 25.184 40.0589 26.8833 40.6058 28.9184C41.1488 30.9497 40.8714 33.0748 39.8167 34.899C38.7659 36.7233 37.0667 38.0241 35.0315 38.571C32.9963 39.1139 30.8751 38.8366 29.0509 37.7819L24.9024 35.3873C23.1875 34.3951 21.0546 34.3951 19.3359 35.3873L16.8827 36.8053L11.8162 39.8835C10.6013 40.5827 9.25365 40.9421 7.89034 40.9421L7.89424 40.9304ZM11.2107 25.891L5.67936 29.2388C4.65981 29.8247 3.93323 30.7739 3.62854 31.9107C3.32385 33.0474 3.4801 34.231 4.06605 35.2506C4.652 36.2701 5.60123 36.9967 6.73797 37.3014C7.8669 37.6022 9.04661 37.4499 10.0623 36.8717L14.242 34.3326V34.3053L17.5975 32.3677C20.3867 30.7583 23.8516 30.7583 26.6407 32.3677L30.7892 34.7623C31.8087 35.3483 32.9924 35.5045 34.1291 35.2037C35.2658 34.899 36.2112 34.1724 36.801 33.1529C37.387 32.1333 37.5432 30.9497 37.2424 29.813C36.9377 28.6763 36.2112 27.7309 35.1916 27.1411L31.047 24.7465C28.2579 23.1371 26.5235 20.1331 26.5235 16.9143V10.8751C26.5235 8.44932 24.5508 6.47663 22.125 6.47663C19.6992 6.47663 17.7265 8.44932 17.7265 10.8751V16.4846V16.9104C17.7265 20.1331 15.9921 23.1332 13.2029 24.7426L11.2107 25.891Z" fill="white"/>
<path d="M22.1249 45.864C17.7811 45.864 14.2458 42.3288 14.2458 37.985V31.3677C14.2458 29.7427 13.3708 28.227 11.9646 27.4145L7.31994 24.7348C3.55815 22.5628 2.26516 17.7346 4.43707 13.9728C5.48788 12.1486 7.18713 10.8478 9.22232 10.3009C11.2536 9.75791 13.3786 10.0353 15.2029 11.09L19.8475 13.7736C21.2538 14.5861 23.0038 14.5861 24.4101 13.7736L27.3516 12.0744L32.8282 8.44929C34.6525 7.39849 36.7736 7.11724 38.8088 7.66412C40.8401 8.2071 42.5393 9.51181 43.594 11.3361C44.6448 13.1603 44.9261 15.2815 44.3792 17.3166C43.8401 19.3323 42.5511 21.0198 40.7542 22.0745L34.8517 25.9457L32.2852 27.4262C30.879 28.2387 30.004 29.7544 30.004 31.3794V37.9928C30.004 42.3366 26.4687 45.8719 22.1249 45.8719V45.864ZM11.2653 13.508C10.8825 13.508 10.4997 13.5588 10.1208 13.6603C8.98403 13.965 8.0387 14.6916 7.44885 15.7111C6.23789 17.8127 6.95665 20.5081 9.05825 21.7191L13.7029 24.3988C16.1834 25.8324 17.7264 28.5004 17.7264 31.3638V37.9811C17.7264 40.4069 19.6991 42.3796 22.1249 42.3796C24.5507 42.3796 26.5234 40.4069 26.5234 37.9811V31.3677C26.5234 28.5044 28.0664 25.8324 30.5469 24.4027L33.0704 22.9457L38.969 19.0784C39.9885 18.4924 40.7151 17.5432 41.0198 16.4065C41.3245 15.2697 41.1682 14.0861 40.5823 13.0666C39.9963 12.047 39.0471 11.3204 37.9103 11.0157C36.7931 10.715 35.6212 10.8634 34.6134 11.4298L29.1407 15.051L26.1523 16.7737C23.6718 18.2073 20.5897 18.2073 18.1092 16.7737L13.4646 14.09C12.7849 13.6994 12.0349 13.5002 11.2731 13.5002L11.2653 13.508Z" fill="url(#paint1_linear_1823_496)"/>
</g>
<mask id="mask1_1823_496" style="mask-type:luminance" maskUnits="userSpaceOnUse" x="26" y="20" width="15" height="11">
<path d="M27.4219 25.6332C27.1211 23.1254 29.9259 21.7816 31.8751 21.2035C33.1095 20.8402 34.4806 20.4417 35.7775 20.4066C37.5979 20.3597 38.551 21.5707 39.3987 23.1059C40.2972 24.7387 40.7464 26.4926 39.8753 28.2427C39.0745 29.8482 37.6604 30.2622 35.9807 30.3951C33.8283 30.563 31.6251 30.1451 29.7813 28.9927C28.1993 28.0044 26.6367 25.5981 27.4219 25.6332C26.6367 25.5981 27.1211 23.1254 27.4219 25.6332Z" fill="white"/>
</mask>
<g mask="url(#mask1_1823_496)">
<path d="M7.89424 40.9304C7.21064 40.9304 6.51922 40.8405 5.84343 40.6569C3.81214 40.114 2.11289 38.8093 1.05818 36.985C0.00738022 35.1647 -0.273875 33.0435 0.27301 31.0122C0.815989 28.9849 2.11289 27.2895 3.92933 26.2387L6.71844 24.477L11.4685 21.7347C13.1834 20.7425 14.2498 18.8987 14.2498 16.9143V10.6251H14.2537C14.3866 6.3985 17.8671 3 22.1289 3C26.3907 3 30.0079 6.53522 30.0079 10.8791V16.9182C30.0079 18.8987 31.0744 20.7464 32.7892 21.7386L36.9338 24.1332C38.7581 25.184 40.0589 26.8833 40.6058 28.9184C41.1488 30.9497 40.8714 33.0748 39.8167 34.899C38.7659 36.7233 37.0667 38.0241 35.0315 38.571C32.9963 39.1139 30.8751 38.8366 29.0509 37.7819L24.9024 35.3873C23.1875 34.3951 21.0546 34.3951 19.3359 35.3873L16.8827 36.8053L11.8162 39.8835C10.6013 40.5827 9.25365 40.9421 7.89034 40.9421L7.89424 40.9304ZM11.2107 25.891L5.67936 29.2388C4.65981 29.8247 3.93323 30.7739 3.62854 31.9107C3.32385 33.0474 3.4801 34.231 4.06605 35.2506C4.652 36.2701 5.60123 36.9967 6.73797 37.3014C7.8669 37.6022 9.04661 37.4499 10.0623 36.8717L14.242 34.3326V34.3053L17.5975 32.3677C20.3867 30.7583 23.8516 30.7583 26.6407 32.3677L30.7892 34.7623C31.8087 35.3483 32.9924 35.5045 34.1291 35.2037C35.2658 34.899 36.2112 34.1724 36.801 33.1529C37.387 32.1333 37.5432 30.9497 37.2424 29.813C36.9377 28.6763 36.2112 27.7309 35.1916 27.1411L31.047 24.7465C28.2579 23.1371 26.5235 20.1331 26.5235 16.9143V10.8751C26.5235 8.44932 24.5508 6.47663 22.125 6.47663C19.6992 6.47663 17.7265 8.44932 17.7265 10.8751V16.4846V16.9104C17.7265 20.1331 15.9921 23.1332 13.2029 24.7426L11.2107 25.891Z" fill="white"/>
<path d="M22.1249 45.864C17.7811 45.864 14.2458 42.3288 14.2458 37.985V31.3677C14.2458 29.7427 13.3708 28.227 11.9646 27.4145L7.31994 24.7348C3.55815 22.5628 2.26516 17.7346 4.43707 13.9728C5.48788 12.1486 7.18713 10.8478 9.22232 10.3009C11.2536 9.75791 13.3786 10.0353 15.2029 11.09L19.8475 13.7736C21.2538 14.5861 23.0038 14.5861 24.4101 13.7736L27.3516 12.0744L32.8282 8.44929C34.6525 7.39849 36.7736 7.11724 38.8088 7.66412C40.8401 8.2071 42.5393 9.51181 43.594 11.3361C44.6448 13.1603 44.9261 15.2815 44.3792 17.3166C43.8401 19.3323 42.5511 21.0198 40.7542 22.0745L34.8517 25.9457L32.2852 27.4262C30.879 28.2387 30.004 29.7544 30.004 31.3794V37.9928C30.004 42.3366 26.4687 45.8719 22.1249 45.8719V45.864ZM11.2653 13.508C10.8825 13.508 10.4997 13.5588 10.1208 13.6603C8.98403 13.965 8.0387 14.6916 7.44885 15.7111C6.23789 17.8127 6.95665 20.5081 9.05825 21.7191L13.7029 24.3988C16.1834 25.8324 17.7264 28.5004 17.7264 31.3638V37.9811C17.7264 40.4069 19.6991 42.3796 22.1249 42.3796C24.5507 42.3796 26.5234 40.4069 26.5234 37.9811V31.3677C26.5234 28.5044 28.0664 25.8324 30.5469 24.4027L33.0704 22.9457L38.969 19.0784C39.9885 18.4924 40.7151 17.5432 41.0198 16.4065C41.3245 15.2697 41.1682 14.0861 40.5823 13.0666C39.9963 12.047 39.0471 11.3204 37.9103 11.0157C36.7931 10.715 35.6212 10.8634 34.6134 11.4298L29.1407 15.051L26.1523 16.7737C23.6718 18.2073 20.5897 18.2073 18.1092 16.7737L13.4646 14.09C12.7849 13.6994 12.0349 13.5002 11.2731 13.5002L11.2653 13.508Z" fill="url(#paint2_linear_1823_496)"/>
</g>
<mask id="mask2_1823_496" style="mask-type:luminance" maskUnits="userSpaceOnUse" x="11" y="9" width="11" height="10">
<path d="M19.8397 11.215C18.8045 9.84782 15.9841 9.11733 14.3161 9.05874C12.8591 9.00796 11.5114 10.6916 11.3044 12.1174C11.1091 13.4768 11.8591 15.9026 12.7849 16.9026C13.738 17.93 15.7341 18.9652 17.1756 18.7191C19.324 18.348 20.203 16.5433 20.867 14.7424C21.3671 13.3869 21.035 12.6682 20.0467 11.4416C19.578 10.8596 19.0545 10.297 19.8397 11.215C19.0545 10.297 18.8045 9.84782 19.8397 11.215Z" fill="white"/>
</mask>
<g mask="url(#mask2_1823_496)">
<path d="M7.89424 40.9304C7.21064 40.9304 6.51922 40.8405 5.84343 40.6569C3.81214 40.114 2.11289 38.8093 1.05818 36.985C0.00738022 35.1647 -0.273875 33.0435 0.27301 31.0122C0.815989 28.9849 2.11289 27.2895 3.92933 26.2387L6.71844 24.477L11.4685 21.7347C13.1834 20.7425 14.2498 18.8987 14.2498 16.9143V10.6251H14.2537C14.3866 6.3985 17.8671 3 22.1289 3C26.3907 3 30.0079 6.53522 30.0079 10.8791V16.9182C30.0079 18.8987 31.0744 20.7464 32.7892 21.7386L36.9338 24.1332C38.7581 25.184 40.0589 26.8833 40.6058 28.9184C41.1488 30.9497 40.8714 33.0748 39.8167 34.899C38.7659 36.7233 37.0667 38.0241 35.0315 38.571C32.9963 39.1139 30.8751 38.8366 29.0509 37.7819L24.9024 35.3873C23.1875 34.3951 21.0546 34.3951 19.3359 35.3873L16.8827 36.8053L11.8162 39.8835C10.6013 40.5827 9.25365 40.9421 7.89034 40.9421L7.89424 40.9304ZM11.2107 25.891L5.67936 29.2388C4.65981 29.8247 3.93323 30.7739 3.62854 31.9107C3.32385 33.0474 3.4801 34.231 4.06605 35.2506C4.652 36.2701 5.60123 36.9967 6.73797 37.3014C7.8669 37.6022 9.04661 37.4499 10.0623 36.8717L14.242 34.3326V34.3053L17.5975 32.3677C20.3867 30.7583 23.8516 30.7583 26.6407 32.3677L30.7892 34.7623C31.8087 35.3483 32.9924 35.5045 34.1291 35.2037C35.2658 34.899 36.2112 34.1724 36.801 33.1529C37.387 32.1333 37.5432 30.9497 37.2424 29.813C36.9377 28.6763 36.2112 27.7309 35.1916 27.1411L31.047 24.7465C28.2579 23.1371 26.5235 20.1331 26.5235 16.9143V10.8751C26.5235 8.44932 24.5508 6.47663 22.125 6.47663C19.6992 6.47663 17.7265 8.44932 17.7265 10.8751V16.4846V16.9104C17.7265 20.1331 15.9921 23.1332 13.2029 24.7426L11.2107 25.891Z" fill="white"/>
<path d="M22.1249 45.864C17.7811 45.864 14.2458 42.3288 14.2458 37.985V31.3677C14.2458 29.7427 13.3708 28.227 11.9646 27.4145L7.31994 24.7348C3.55815 22.5628 2.26516 17.7346 4.43707 13.9728C5.48788 12.1486 7.18713 10.8478 9.22232 10.3009C11.2536 9.75791 13.3786 10.0353 15.2029 11.09L19.8475 13.7736C21.2538 14.5861 23.0038 14.5861 24.4101 13.7736L27.3516 12.0744L32.8282 8.44929C34.6525 7.39849 36.7736 7.11724 38.8088 7.66412C40.8401 8.2071 42.5393 9.51181 43.594 11.3361C44.6448 13.1603 44.9261 15.2815 44.3792 17.3166C43.8401 19.3323 42.5511 21.0198 40.7542 22.0745L34.8517 25.9457L32.2852 27.4262C30.879 28.2387 30.004 29.7544 30.004 31.3794V37.9928C30.004 42.3366 26.4687 45.8719 22.1249 45.8719V45.864ZM11.2653 13.508C10.8825 13.508 10.4997 13.5588 10.1208 13.6603C8.98403 13.965 8.0387 14.6916 7.44885 15.7111C6.23789 17.8127 6.95665 20.5081 9.05825 21.7191L13.7029 24.3988C16.1834 25.8324 17.7264 28.5004 17.7264 31.3638V37.9811C17.7264 40.4069 19.6991 42.3796 22.1249 42.3796C24.5507 42.3796 26.5234 40.4069 26.5234 37.9811V31.3677C26.5234 28.5044 28.0664 25.8324 30.5469 24.4027L33.0704 22.9457L38.969 19.0784C39.9885 18.4924 40.7151 17.5432 41.0198 16.4065C41.3245 15.2697 41.1682 14.0861 40.5823 13.0666C39.9963 12.047 39.0471 11.3204 37.9103 11.0157C36.7931 10.715 35.6212 10.8634 34.6134 11.4298L29.1407 15.051L26.1523 16.7737C23.6718 18.2073 20.5897 18.2073 18.1092 16.7737L13.4646 14.09C12.7849 13.6994 12.0349 13.5002 11.2731 13.5002L11.2653 13.508Z" fill="url(#paint3_linear_1823_496)"/>
</g>
<path d="M176.42 12.09V33H173.69V23.52H163.04V33H160.31V12.09H163.04V21.27H173.69V12.09H176.42ZM195.661 16.56V33H192.931V30.57C192.411 31.41 191.681 32.07 190.741 32.55C189.821 33.01 188.801 33.24 187.681 33.24C186.401 33.24 185.251 32.98 184.231 32.46C183.211 31.92 182.401 31.12 181.801 30.06C181.221 29 180.931 27.71 180.931 26.19V16.56H183.631V25.83C183.631 27.45 184.041 28.7 184.861 29.58C185.681 30.44 186.801 30.87 188.221 30.87C189.681 30.87 190.831 30.42 191.671 29.52C192.511 28.62 192.931 27.31 192.931 25.59V16.56H195.661ZM203.001 19.62C203.561 18.64 204.381 17.84 205.461 17.22C206.541 16.6 207.771 16.29 209.151 16.29C210.631 16.29 211.961 16.64 213.141 17.34C214.321 18.04 215.251 19.03 215.931 20.31C216.611 21.57 216.951 23.04 216.951 24.72C216.951 26.38 216.611 27.86 215.931 29.16C215.251 30.46 214.311 31.47 213.111 32.19C211.931 32.91 210.611 33.27 209.151 33.27C207.731 33.27 206.481 32.96 205.401 32.34C204.341 31.72 203.541 30.93 203.001 29.97V33H200.271V10.8H203.001V19.62ZM214.161 24.72C214.161 23.48 213.911 22.4 213.411 21.48C212.911 20.56 212.231 19.86 211.371 19.38C210.531 18.9 209.601 18.66 208.581 18.66C207.581 18.66 206.651 18.91 205.791 19.41C204.951 19.89 204.271 20.6 203.751 21.54C203.251 22.46 203.001 23.53 203.001 24.75C203.001 25.99 203.251 27.08 203.751 28.02C204.271 28.94 204.951 29.65 205.791 30.15C206.651 30.63 207.581 30.87 208.581 30.87C209.601 30.87 210.531 30.63 211.371 30.15C212.231 29.65 212.911 28.94 213.411 28.02C213.911 27.08 214.161 25.98 214.161 24.72Z" fill="white"/>
<path d="M58.66 33.21C56.2 33.21 54.18 32.63 52.6 31.47C51.02 30.29 50.17 28.61 50.05 26.43H56.32C56.38 27.17 56.6 27.71 56.98 28.05C57.36 28.39 57.85 28.56 58.45 28.56C58.99 28.56 59.43 28.43 59.77 28.17C60.13 27.89 60.31 27.51 60.31 27.03C60.31 26.41 60.02 25.93 59.44 25.59C58.86 25.25 57.92 24.87 56.62 24.45C55.24 23.99 54.12 23.55 53.26 23.13C52.42 22.69 51.68 22.06 51.04 21.24C50.42 20.4 50.11 19.31 50.11 17.97C50.11 16.61 50.45 15.45 51.13 14.49C51.81 13.51 52.75 12.77 53.95 12.27C55.15 11.77 56.51 11.52 58.03 11.52C60.49 11.52 62.45 12.1 63.91 13.26C65.39 14.4 66.18 16.01 66.28 18.09H59.89C59.87 17.45 59.67 16.97 59.29 16.65C58.93 16.33 58.46 16.17 57.88 16.17C57.44 16.17 57.08 16.3 56.8 16.56C56.52 16.82 56.38 17.19 56.38 17.67C56.38 18.07 56.53 18.42 56.83 18.72C57.15 19 57.54 19.25 58 19.47C58.46 19.67 59.14 19.93 60.04 20.25C61.38 20.71 62.48 21.17 63.34 21.63C64.22 22.07 64.97 22.7 65.59 23.52C66.23 24.32 66.55 25.34 66.55 26.58C66.55 27.84 66.23 28.97 65.59 29.97C64.97 30.97 64.06 31.76 62.86 32.34C61.68 32.92 60.28 33.21 58.66 33.21ZM77.1135 33.21C75.4335 33.21 73.9235 32.86 72.5835 32.16C71.2635 31.46 70.2235 30.46 69.4635 29.16C68.7035 27.86 68.3235 26.33 68.3235 24.57C68.3235 22.83 68.7035 21.31 69.4635 20.01C70.2435 18.71 71.2935 17.71 72.6135 17.01C73.9535 16.31 75.4635 15.96 77.1435 15.96C78.8235 15.96 80.3235 16.31 81.6435 17.01C82.9835 17.71 84.0335 18.71 84.7935 20.01C85.5735 21.31 85.9635 22.83 85.9635 24.57C85.9635 26.31 85.5735 27.84 84.7935 29.16C84.0335 30.46 82.9835 31.46 81.6435 32.16C80.3035 32.86 78.7935 33.21 77.1135 33.21ZM77.1135 28.11C77.9335 28.11 78.6135 27.81 79.1535 27.21C79.7135 26.59 79.9935 25.71 79.9935 24.57C79.9935 23.43 79.7135 22.56 79.1535 21.96C78.6135 21.36 77.9435 21.06 77.1435 21.06C76.3435 21.06 75.6735 21.36 75.1335 21.96C74.5935 22.56 74.3235 23.43 74.3235 24.57C74.3235 25.73 74.5835 26.61 75.1035 27.21C75.6235 27.81 76.2935 28.11 77.1135 28.11ZM94.2358 10.8V33H88.3558V10.8H94.2358ZM96.6243 24.57C96.6243 22.83 96.9343 21.31 97.5543 20.01C98.1943 18.71 99.0543 17.71 100.134 17.01C101.234 16.31 102.454 15.96 103.794 15.96C104.954 15.96 105.954 16.19 106.794 16.65C107.634 17.11 108.284 17.73 108.744 18.51V16.17H114.624V33H108.744V30.66C108.284 31.44 107.624 32.06 106.764 32.52C105.924 32.98 104.934 33.21 103.794 33.21C102.454 33.21 101.234 32.86 100.134 32.16C99.0543 31.46 98.1943 30.46 97.5543 29.16C96.9343 27.84 96.6243 26.31 96.6243 24.57ZM108.744 24.57C108.744 23.49 108.444 22.64 107.844 22.02C107.264 21.4 106.544 21.09 105.684 21.09C104.804 21.09 104.074 21.4 103.494 22.02C102.914 22.62 102.624 23.47 102.624 24.57C102.624 25.65 102.914 26.51 103.494 27.15C104.074 27.77 104.804 28.08 105.684 28.08C106.544 28.08 107.264 27.77 107.844 27.15C108.444 26.53 108.744 25.67 108.744 24.57ZM128.985 16.02C130.925 16.02 132.465 16.67 133.605 17.97C134.745 19.25 135.315 20.99 135.315 23.19V33H129.435V23.97C129.435 23.01 129.185 22.26 128.685 21.72C128.185 21.16 127.515 20.88 126.675 20.88C125.795 20.88 125.105 21.16 124.605 21.72C124.105 22.26 123.855 23.01 123.855 23.97V33H117.975V16.17H123.855V18.57C124.375 17.81 125.075 17.2 125.955 16.74C126.835 16.26 127.845 16.02 128.985 16.02ZM137.581 24.57C137.581 22.83 137.891 21.31 138.511 20.01C139.151 18.71 140.011 17.71 141.091 17.01C142.191 16.31 143.411 15.96 144.751 15.96C145.911 15.96 146.911 16.19 147.751 16.65C148.591 17.11 149.241 17.73 149.701 18.51V16.17H155.581V33H149.701V30.66C149.241 31.44 148.581 32.06 147.721 32.52C146.881 32.98 145.891 33.21 144.751 33.21C143.411 33.21 142.191 32.86 141.091 32.16C140.011 31.46 139.151 30.46 138.511 29.16C137.891 27.84 137.581 26.31 137.581 24.57ZM149.701 24.57C149.701 23.49 149.401 22.64 148.801 22.02C148.221 21.4 147.501 21.09 146.641 21.09C145.761 21.09 145.031 21.4 144.451 22.02C143.871 22.62 143.581 23.47 143.581 24.57C143.581 25.65 143.871 26.51 144.451 27.15C145.031 27.77 145.761 28.08 146.641 28.08C147.501 28.08 148.221 27.77 148.801 27.15C149.401 26.53 149.701 25.67 149.701 24.57Z" fill="white"/>
<defs>
<linearGradient id="paint0_linear_1823_496" x1="24.0176" y1="0.380938" x2="24.0176" y2="42.5119" gradientUnits="userSpaceOnUse">
<stop stop-color="#FF845A"/>
<stop offset="0.3" stop-color="#FD49AD"/>
<stop offset="0.68" stop-color="#395DF0"/>
<stop offset="1" stop-color="#0CDAC4"/>
</linearGradient>
<linearGradient id="paint1_linear_1823_496" x1="24.0176" y1="0.380938" x2="24.0176" y2="42.5119" gradientUnits="userSpaceOnUse">
<stop stop-color="#FF845A"/>
<stop offset="0.3" stop-color="#FD49AD"/>
<stop offset="0.68" stop-color="#395DF0"/>
<stop offset="1" stop-color="#0CDAC4"/>
</linearGradient>
<linearGradient id="paint2_linear_1823_496" x1="24.0176" y1="0.380938" x2="24.0176" y2="42.5119" gradientUnits="userSpaceOnUse">
<stop stop-color="#FF845A"/>
<stop offset="0.3" stop-color="#FD49AD"/>
<stop offset="0.68" stop-color="#395DF0"/>
<stop offset="1" stop-color="#0CDAC4"/>
</linearGradient>
<linearGradient id="paint3_linear_1823_496" x1="24.0176" y1="0.380938" x2="24.0176" y2="42.5119" gradientUnits="userSpaceOnUse">
<stop stop-color="#FF845A"/>
<stop offset="0.3" stop-color="#FD49AD"/>
<stop offset="0.68" stop-color="#395DF0"/>
<stop offset="1" stop-color="#0CDAC4"/>
</linearGradient>
</defs>
</svg>
