<svg width="96" height="20" viewBox="0 0 96 20" fill="none" xmlns="http://www.w3.org/2000/svg">
<path d="M5.30523 19.9996L15.7576 13.2939L4.51758 16.6468" fill="#04172C"/>
<path fill-rule="evenodd" clip-rule="evenodd" d="M10.7512 16.5726L16.1629 20C18.0681 20 19.7924 19.0101 20.7504 17.3497C21.7084 15.6892 21.7084 13.7094 20.7504 12.049L15.322 2.65035C14.364 0.989888 12.6503 0 10.7344 0C8.81852 0 7.10484 0.989888 6.14689 2.65035L0.718467 12.049C-0.239489 13.7094 -0.239489 15.6892 0.718467 17.3497C1.67642 19.0101 3.3901 20 5.30602 20L10.7176 16.5726H10.7344H10.7512ZM4.93791 16.5393C5.05186 16.5607 5.17442 16.5726 5.30602 16.5726H10.7176L10.7344 16.562L10.7512 16.5726H16.1629C17.1315 16.5726 17.6104 15.9234 17.7701 15.6466C17.9298 15.3699 18.2597 14.6248 17.7701 13.7839L12.3417 4.38531C11.852 3.54444 11.0538 3.45929 10.7344 3.45929C10.4151 3.45929 9.60617 3.54444 9.1272 4.38531L3.69878 13.7839C3.20915 14.6248 3.53912 15.3699 3.69878 15.6466C3.70151 15.6514 3.70435 15.6562 3.70728 15.6612L0.974609 17.7446L4.93791 16.5393Z" fill="#04172C"/>
<path d="M38.5966 13.9312H35.1793H31.762L30.6353 16.3951H27.9609L33.8297 3.32031H36.5289L42.3977 16.3951H39.7109L38.5966 13.9312ZM35.1793 6.06899L32.7525 11.6406H35.1793H37.6061L35.1793 6.06899Z" fill="#04172C"/>
<path d="M50.9902 7.17188L47.0653 16.4456H44.6014L40.6641 7.17188H43.1527L44.428 10.2177L45.8519 14.1055L47.251 10.2549L48.5263 7.17188H50.9902Z" fill="#04172C"/>
<path d="M59.396 7.19482H61.5875V16.4066H59.4332L59.3217 15.057C58.8017 16.1466 57.3655 16.6666 56.3378 16.679C53.6139 16.7038 51.5957 15.0199 51.5957 11.7883C51.5957 8.6063 53.7129 6.94719 56.3997 6.97195C57.6378 6.97195 58.8141 7.55388 59.3341 8.4701L59.396 7.19482ZM53.8615 11.7883C53.8615 13.5465 55.0749 14.5865 56.5854 14.5865C60.176 14.5865 60.176 9.00251 56.5854 9.00251C55.0749 9.00251 53.8615 10.0302 53.8615 11.7883Z" fill="#04172C"/>
<path d="M65.6252 7.19629V12.0127C65.6252 13.4118 66.3928 14.4766 67.8538 14.4766C69.2529 14.4766 70.2063 13.3003 70.2063 11.9012V7.19629H72.4721V16.4328H70.4415L70.293 15.1823C69.3396 16.1109 68.4605 16.569 67.1728 16.569C64.969 16.569 63.3594 14.9099 63.3594 12.0498V7.20868H65.6252V7.19629Z" fill="#04172C"/>
<path d="M76.7443 3.3457V16.4081H74.4785V3.3457H76.7443Z" fill="#04172C"/>
<path d="M81.9562 4.5957V7.20819H84.4944V9.16445H81.9315V13.1389C81.9315 14.018 82.4144 14.4513 83.1325 14.4513C83.4915 14.4513 83.9001 14.3399 84.2344 14.1665L84.8659 16.1104C84.2097 16.3704 83.6649 16.4819 82.9839 16.5066C80.9905 16.5809 79.6781 15.4418 79.6781 13.1389V9.16445H77.957V7.20819H79.6781L81.9562 4.5957Z" fill="#04172C"/>
<path d="M95.3528 11.802C95.3528 14.4517 93.5451 16.606 90.5488 16.606C87.5648 16.606 85.7695 14.4517 85.7695 11.802C85.7695 9.1648 87.602 6.99805 90.5364 6.99805C93.4708 7.01043 95.3528 9.17718 95.3528 11.802ZM88.0477 11.802C88.0477 13.2011 88.8897 14.5136 90.5488 14.5136C92.2079 14.5136 93.0498 13.2011 93.0498 11.802C93.0498 10.4153 92.0841 9.07812 90.5488 9.07812C88.9144 9.07812 88.0477 10.4277 88.0477 11.802Z" fill="#04172C"/>
</svg>
