<svg width="17" height="17" viewBox="0 0 17 17" fill="none" xmlns="http://www.w3.org/2000/svg">
<g clip-path="url(#clip0_1925_440)">
<path fill-rule="evenodd" clip-rule="evenodd" d="M0.714844 2.55C0.714844 1.8737 0.9677 1.22509 1.41779 0.746878C1.86787 0.268659 2.47832 0 3.11484 0H14.3148C14.9514 0 15.5618 0.268659 16.0119 0.746878C16.462 1.22509 16.7148 1.8737 16.7148 2.55V14.45C16.7148 15.1263 16.462 15.7749 16.0119 16.2532C15.5618 16.7313 14.9514 17 14.3148 17H3.11484C2.47832 17 1.86787 16.7313 1.41779 16.2532C0.9677 15.7749 0.714844 15.1263 0.714844 14.45V2.55ZM3.11484 1.7C2.90267 1.7 2.69919 1.78956 2.54916 1.94895C2.39913 2.10836 2.31484 2.32457 2.31484 2.55V6.8H15.1148V2.55C15.1148 2.32457 15.0306 2.10836 14.8805 1.94895C14.7305 1.78956 14.527 1.7 14.3148 1.7H3.11484ZM2.31484 8.5V14.45C2.31484 14.6755 2.39913 14.8917 2.54916 15.0511C2.69919 15.2104 2.90267 15.3 3.11484 15.3H14.3148C14.527 15.3 14.7305 15.2104 14.8805 15.0511C15.0306 14.8917 15.1148 14.6755 15.1148 14.45V8.5H2.31484ZM10.3148 9.35C10.527 9.35005 10.7304 9.43963 10.8804 9.59905L14.0804 12.999C14.2262 13.1594 14.3068 13.3741 14.305 13.5969C14.3032 13.8198 14.219 14.033 14.0707 14.1906C13.9224 14.3482 13.7217 14.4376 13.512 14.4395C13.3022 14.4415 13.1001 14.3558 12.9492 14.2009L10.3148 11.4019L8.48044 13.351L7.68044 14.2009C7.52956 14.3558 7.32748 14.4415 7.11772 14.4395C6.90797 14.4376 6.70732 14.3482 6.55899 14.1906C6.41066 14.033 6.32653 13.8198 6.3247 13.5969C6.32288 13.3741 6.40352 13.1594 6.54924 12.999L6.78364 12.75L6.31484 12.2519L4.48044 14.2009C4.32956 14.3558 4.12748 14.4415 3.91772 14.4395C3.70797 14.4376 3.50732 14.3482 3.35899 14.1906C3.21066 14.033 3.12653 13.8198 3.1247 13.5969C3.12288 13.3741 3.20352 13.1594 3.34924 12.999L5.74924 10.4491C5.89927 10.2897 6.10271 10.2002 6.31484 10.2002C6.52698 10.2002 6.73042 10.2897 6.88044 10.4491L7.91484 11.5481L9.74924 9.59905C9.89924 9.43963 10.1027 9.35005 10.3148 9.35ZM7.91484 4.25C7.91484 4.02457 7.99913 3.80836 8.14916 3.64895C8.29919 3.48956 8.50267 3.4 8.71484 3.4H12.7148C12.927 3.4 13.1305 3.48956 13.2805 3.64895C13.4306 3.80836 13.5148 4.02457 13.5148 4.25C13.5148 4.47543 13.4306 4.69164 13.2805 4.85105C13.1305 5.01044 12.927 5.1 12.7148 5.1H8.71484C8.50267 5.1 8.29919 5.01044 8.14916 4.85105C7.99913 4.69164 7.91484 4.47543 7.91484 4.25ZM4.71484 5.7375C5.08615 5.7375 5.44224 5.58078 5.70479 5.30182C5.96734 5.02286 6.11484 4.64451 6.11484 4.25C6.11484 3.85549 5.96734 3.47714 5.70479 3.19818C5.44224 2.91922 5.08615 2.7625 4.71484 2.7625C4.34354 2.7625 3.98745 2.91922 3.72489 3.19818C3.46234 3.47714 3.31484 3.85549 3.31484 4.25C3.31484 4.64451 3.46234 5.02286 3.72489 5.30182C3.98745 5.58078 4.34354 5.7375 4.71484 5.7375Z" fill="white"/>
</g>
<defs>
<clipPath id="clip0_1925_440">
<rect width="17" height="17" fill="white"/>
</clipPath>
</defs>
</svg>
