<svg width="17" height="16" viewBox="0 0 17 16" fill="none" xmlns="http://www.w3.org/2000/svg">
<path fill-rule="evenodd" clip-rule="evenodd" d="M0.714844 2.4C0.714844 1.76348 0.9677 1.15303 1.41779 0.702944C1.86787 0.252856 2.47832 0 3.11484 0H14.3148C14.9514 0 15.5618 0.252856 16.0119 0.702944C16.462 1.15303 16.7148 1.76348 16.7148 2.4V13.6C16.7148 14.2365 16.462 14.847 16.0119 15.2971C15.5618 15.7471 14.9514 16 14.3148 16H3.11484C2.47832 16 1.86787 15.7471 1.41779 15.2971C0.9677 14.847 0.714844 14.2365 0.714844 13.6V2.4ZM3.11484 1.6C2.90267 1.6 2.69919 1.68429 2.54916 1.83431C2.39913 1.98434 2.31484 2.18783 2.31484 2.4V6.4H15.1148V2.4C15.1148 2.18783 15.0306 1.98434 14.8805 1.83431C14.7305 1.68429 14.527 1.6 14.3148 1.6H3.11484ZM2.31484 8V13.6C2.31484 13.8122 2.39913 14.0157 2.54916 14.1657C2.69919 14.3157 2.90267 14.4 3.11484 14.4H14.3148C14.527 14.4 14.7305 14.3157 14.8805 14.1657C15.0306 14.0157 15.1148 13.8122 15.1148 13.6V8H2.31484ZM10.3148 8.8C10.527 8.80005 10.7304 8.88436 10.8804 9.0344L14.0804 12.2344C14.2262 12.3853 14.3068 12.5874 14.305 12.7971C14.3032 13.0069 14.219 13.2075 14.0707 13.3559C13.9224 13.5042 13.7217 13.5883 13.512 13.5901C13.3022 13.592 13.1001 13.5113 12.9492 13.3656L10.3148 10.7312L8.48044 12.5656L7.68044 13.3656C7.52956 13.5113 7.32748 13.592 7.11772 13.5901C6.90797 13.5883 6.70732 13.5042 6.55899 13.3559C6.41066 13.2075 6.32653 13.0069 6.3247 12.7971C6.32288 12.5874 6.40352 12.3853 6.54924 12.2344L6.78364 12L6.31484 11.5312L4.48044 13.3656C4.32956 13.5113 4.12748 13.592 3.91772 13.5901C3.70797 13.5883 3.50732 13.5042 3.35899 13.3559C3.21066 13.2075 3.12653 13.0069 3.1247 12.7971C3.12288 12.5874 3.20352 12.3853 3.34924 12.2344L5.74924 9.8344C5.89927 9.68442 6.10271 9.60017 6.31484 9.60017C6.52698 9.60017 6.73042 9.68442 6.88044 9.8344L7.91484 10.8688L9.74924 9.0344C9.89924 8.88436 10.1027 8.80005 10.3148 8.8ZM7.91484 4C7.91484 3.78783 7.99913 3.58434 8.14916 3.43431C8.29919 3.28429 8.50267 3.2 8.71484 3.2H12.7148C12.927 3.2 13.1305 3.28429 13.2805 3.43431C13.4306 3.58434 13.5148 3.78783 13.5148 4C13.5148 4.21217 13.4306 4.41566 13.2805 4.56569C13.1305 4.71571 12.927 4.8 12.7148 4.8H8.71484C8.50267 4.8 8.29919 4.71571 8.14916 4.56569C7.99913 4.41566 7.91484 4.21217 7.91484 4ZM4.71484 5.4C5.08615 5.4 5.44224 5.2525 5.70479 4.98995C5.96734 4.7274 6.11484 4.3713 6.11484 4C6.11484 3.6287 5.96734 3.2726 5.70479 3.01005C5.44224 2.7475 5.08615 2.6 4.71484 2.6C4.34354 2.6 3.98745 2.7475 3.72489 3.01005C3.46234 3.2726 3.31484 3.6287 3.31484 4C3.31484 4.3713 3.46234 4.7274 3.72489 4.98995C3.98745 5.2525 4.34354 5.4 4.71484 5.4Z" fill="white"/>
</svg>
