<svg width="106" height="36" viewBox="0 0 106 36" fill="none" xmlns="http://www.w3.org/2000/svg">
<path d="M103.024 19.3054V16.7124H105.6V5.15047H103.024V2.57523H100.465V0L77.5235 0L77.4706 0L52.0588 0L52.0059 0L46.9412 0V5.15047H44.3824V7.7257H41.8235V10.3009H39.2471V12.8762H36.6882V10.3009H34.1294V7.70794H31.5529V5.15047H28.9941V0L25.5 0L23.8941 0L0 0L0 36H23.9294H25.5353H29.0294V30.8673H31.5882V28.2921H34.1647V25.6991H36.7235V23.1238H39.2824V25.6991H41.8588V28.2921H44.4176V30.8673H46.9765V36H52.0941V28.2921H49.5176V25.6991H46.9588V23.1238H44.4V20.5486H41.8412V15.3981H44.4V12.8229H46.9588V10.3009H49.5176V7.70794H52.0941V5.15047H62.2588V36H67.3588V5.15047H77.5235V36H82.6235V21.8629H95.4176V24.4381H97.9235V26.9956H100.482V36H105.6V24.4381H103.024V21.8629H100.465V19.2876H103.024V19.3054ZM34.1647 20.5841H31.5882V23.1593H29.0294V25.7346H26.4706V28.3276H23.9118V30.9028H5.1V19.3409H22.9941V14.1904H5.1V5.15047H23.9294V7.7257H26.4882V10.3009H29.0471V12.8762H31.6059V15.4514H34.1823V20.5841H34.1647ZM97.9235 14.1549V16.7301H82.5882V5.15047H97.9235V7.7257H100.482V14.1549H97.9235Z" fill="white"/>
</svg>
