<svg width="44" height="44" viewBox="0 0 44 44" fill="none" xmlns="http://www.w3.org/2000/svg">
<rect width="44" height="44" rx="22" fill="black"/>
<path d="M29.5509 11.0859C25.1357 11.8671 22.0056 14.8397 18.8703 17.8153C17.8717 18.7627 16.8732 19.7101 15.8342 20.5876C15.4101 20.3938 14.8263 20.3128 14.3499 20.2464C14.1279 20.2158 13.93 20.1876 13.7814 20.1542C11.4724 19.9633 8.84398 20.5553 7.2211 22.3022C4.64081 25.2014 4.69543 29.6806 9.22165 30.3161C10.2817 30.5055 11.3698 30.4687 12.4146 30.2081C12.4493 30.3479 12.4975 30.484 12.5585 30.6145C12.5943 30.6973 12.6295 30.7801 12.6583 30.8647C12.832 31.3053 12.9824 31.7546 13.1088 32.211C13.3062 32.8735 13.5029 33.5361 13.8389 34.134C13.8869 34.1992 13.9485 34.2532 14.0196 34.292C14.0906 34.3309 14.1693 34.3537 14.2501 34.359C14.2999 34.4145 14.3606 34.4594 14.4283 34.4908C14.4961 34.5222 14.5695 34.5395 14.6442 34.5416C18.0675 33.0473 21.6624 31.982 25.3471 31.3699C27.4123 30.9787 29.4804 30.7866 31.5614 30.5934C32.745 30.4835 33.9332 30.3731 35.1273 30.2251C35.7352 30.2386 35.9602 29.7041 35.8133 29.3153C35.8791 29.1908 35.8999 29.0474 35.8721 28.9094C35.7675 28.4724 35.6371 28.0419 35.5097 27.6119L35.4445 27.3946C35.4116 27.2814 35.3783 27.1677 35.3446 27.0533C35.2007 26.5629 35.0562 26.0713 34.9429 25.5714C35.4715 25.2813 36.0183 24.6152 36.3919 24.1617C36.4935 24.0384 36.5816 23.9309 36.6539 23.8504C37.341 22.9623 37.8389 21.9428 38.117 20.8549C39.8192 14.825 35.6489 10.3152 29.5509 11.0859ZM35.515 23.2502C35.1667 23.7018 34.7627 24.1075 34.3126 24.4578C34.1322 24.4116 33.9477 24.3832 33.7617 24.3732C33.6912 24.3673 33.6219 24.3609 33.5567 24.3532C34.1206 23.4082 34.4113 21.9186 34.379 21.2854C34.446 20.4672 33.219 20.3456 33.132 21.1615C33.112 21.6591 33.0419 22.1534 32.9229 22.6369C32.7847 23.1299 32.5475 23.5896 32.2257 23.9879C32.1181 24.0288 32.0236 24.098 31.952 24.1882C31.9298 24.2159 31.9102 24.2456 31.8933 24.2769C31.4116 24.2683 30.9304 24.2706 30.4495 24.2839C30.8172 23.451 31.0205 22.4672 30.9294 22.0519C30.8772 21.5384 30.7725 21.0316 30.6169 20.5395C30.3591 19.7565 29.1849 20.1324 29.417 20.9189C29.8281 22.0461 29.7106 23.4134 28.9271 24.3609C27.992 24.4313 27.061 24.5424 26.1342 24.6939C24.9848 24.9312 23.853 25.2471 22.7469 25.6395C22.6678 25.6641 22.5943 25.7039 22.5307 25.7569C22.467 25.8098 22.4144 25.8747 22.3759 25.948C22.3373 26.0212 22.3135 26.1013 22.3059 26.1838C22.2984 26.2662 22.3071 26.3493 22.3316 26.4284C22.3561 26.5074 22.396 26.5809 22.4489 26.6446C22.5018 26.7082 22.5668 26.7608 22.64 26.7994C22.7879 26.8773 22.9608 26.8932 23.1204 26.8436C23.3636 26.7702 23.6062 26.6939 23.8488 26.6181C24.4485 26.4301 25.047 26.2422 25.6578 26.0924C26.8102 25.821 27.9274 25.7036 29.0945 25.6331C29.1729 25.6443 29.2528 25.6397 29.3294 25.6196C29.6096 25.6043 29.8927 25.5908 30.1805 25.5791C31.3447 25.4833 32.5082 25.5479 33.6659 25.6243C33.6777 25.9221 33.7834 26.2598 33.8797 26.5641C33.9341 26.7261 33.9802 26.8907 34.0178 27.0574C34.1176 27.3881 34.2081 27.7218 34.2985 28.056C34.3831 28.3667 34.4677 28.6774 34.5593 28.9852C33.5197 29.1062 32.4765 29.209 31.4334 29.3112C28.7832 29.5714 26.1301 29.8316 23.5257 30.4042C21.6128 30.7912 19.726 31.2977 17.8764 31.9208H17.8712C16.8174 32.258 15.7531 32.5986 14.7857 33.1372C14.6366 32.7331 14.505 32.322 14.3746 31.9102C14.1461 31.1972 13.9182 30.4835 13.6016 29.8098C14.3288 29.5584 15.1746 29.2054 14.9032 28.4924C14.8301 28.3395 14.6999 28.2214 14.5406 28.1636C14.3813 28.1058 14.2057 28.1129 14.0515 28.1834C12.0269 29.2695 9.1729 29.6853 7.31566 28.0753C6.06693 26.5135 7.16647 24.1494 8.41755 22.9142C10.0974 21.481 12.4504 21.1844 14.5849 21.5862C14.2434 21.8426 13.8959 22.0885 13.5423 22.3239C12.8416 22.7938 13.5282 23.8264 14.2307 23.3976C16.1919 22.1641 17.8588 20.5594 19.5269 18.9536C20.5766 17.9427 21.6273 16.9313 22.7516 16.0121C25.2972 13.8565 28.6035 11.8577 32.0636 12.3704C33.7887 12.7228 35.6436 13.5052 36.46 15.1692C37.8321 17.6872 37.25 21.0434 35.515 23.2502Z" fill="white"/>
<path d="M20.8059 28.1151C19.5018 28.3984 18.2245 28.7934 16.9881 29.2957L16.8289 29.3586C16.2644 29.5783 15.4357 29.9007 15.8304 30.6079C16.2034 31.0943 16.7044 30.8305 17.1919 30.5733C17.4215 30.4529 17.6477 30.333 17.8562 30.2949C18.4291 30.0683 19.0135 29.8723 19.6071 29.7075C19.9848 29.6082 20.3654 29.5148 20.7443 29.422L21.1807 29.3145C21.9625 29.0673 21.5948 27.8755 20.8059 28.1151Z" fill="white"/>
</svg>
