<svg width="122" height="122" viewBox="0 0 122 122" fill="none" xmlns="http://www.w3.org/2000/svg">
<g clip-path="url(#clip0_11198_152623)">
<mask id="mask0_11198_152623" style="mask-type:alpha" maskUnits="userSpaceOnUse" x="-27" y="0" width="150" height="151">
<path fill-rule="evenodd" clip-rule="evenodd" d="M100.312 84.4182C113.53 76.513 122.381 62.058 122.381 45.5358C122.381 20.5326 102.112 0.26355 77.109 0.26355C59.4615 0.26355 44.1723 10.361 36.7039 25.0936L-27 88.7975L34.4661 150.264L100.312 84.4182Z" fill="#795E5E"/>
</mask>
<g mask="url(#mask0_11198_152623)">
<path fill-rule="evenodd" clip-rule="evenodd" d="M76.3516 -3.01237L76.3753 -3.03661C69.2388 -2.90286 62.3452 -0.980157 56.417 2.78007C51.9711 7.50721 47.6204 12.3296 43.4097 17.2841C38.8259 22.6661 34.4042 28.1945 30.1979 33.9066C28.633 36.0521 27.0913 38.2287 25.6357 40.4916C27.8986 39.036 30.0752 37.4943 32.2207 35.9294C34.7519 34.0604 37.2508 32.1511 39.7134 30.2055C51.75 20.7088 63.028 10.3107 73.8609 -0.476867C74.6929 -1.31778 75.5203 -2.16313 76.3516 -3.01237ZM71.0149 25.2391C79.0445 17.1188 86.9999 8.90035 94.7302 0.480642C91.5026 -0.836267 88.1896 -1.78661 84.8722 -2.36073C77.7178 4.30389 70.7 11.1131 63.7581 17.9823C55.771 26.0421 47.8626 34.2044 40.1793 42.5681C29.0377 54.6802 18.3474 67.212 8.51872 80.4785C20.5035 71.596 31.8958 62.0179 42.9094 52.0293C52.5083 43.3375 61.8288 34.3436 71.0149 25.2391ZM108.512 8.86882C97.1792 21.4166 85.4274 33.5766 73.5339 45.5791C66.3989 52.6596 59.2095 59.6857 51.9153 66.599C35.9828 81.7059 19.5543 96.293 2.11832 109.738C15.8706 91.9036 30.819 75.1229 46.2963 58.8473C52.8795 51.9285 59.5534 45.1005 66.2771 38.3223C77.9822 26.726 89.8398 15.2585 102.054 4.18724C104.287 5.55573 106.448 7.11399 108.512 8.86882ZM119.176 21.1543C117.792 18.9375 116.214 16.7965 114.448 14.7529C101.892 26.0931 89.72 37.8568 77.7097 49.7583C70.6252 56.8972 63.5912 64.0945 56.67 71.3967C41.567 87.3252 26.9923 103.75 13.5509 121.174C31.3528 107.445 48.1104 92.5286 64.3582 77.0791C71.3047 70.4682 78.1605 63.7665 84.9665 57.015C96.5905 45.2822 108.082 33.4008 119.176 21.1543ZM122.933 28.432C124.277 31.6149 125.258 34.8877 125.872 38.1653C119.137 45.4081 112.24 52.5047 105.292 59.5343C97.1532 67.6008 88.9071 75.5839 80.4556 83.3459C68.4227 94.4082 55.9697 105.011 42.7961 114.774C51.6356 102.841 61.1707 91.5008 71.1156 80.5309C79.8419 70.8793 88.8834 61.5113 98.0355 52.2775C106.199 44.2043 114.461 36.2053 122.933 28.432ZM121.741 65.6747C125.009 59.9038 126.636 53.333 126.658 46.5528C125.681 47.5025 124.709 48.4567 123.745 49.4115C112.834 60.3673 102.327 71.7733 92.7426 83.9606C90.907 86.2952 89.107 88.6576 87.3387 91.0517C85.7698 93.2011 84.2321 95.3738 82.7765 97.6367C85.0394 96.1812 87.216 94.6395 89.3615 93.0745C94.6097 89.2051 99.7105 85.1566 104.683 80.9641C110.529 76.0434 116.201 70.9248 121.741 65.6747Z" fill="url(#paint0_linear_11198_152623)"/>
</g>
</g>
<defs>
<linearGradient id="paint0_linear_11198_152623" x1="102.438" y1="273.932" x2="252.044" y2="95.6716" gradientUnits="userSpaceOnUse">
<stop stop-color="#FF2189"/>
<stop offset="1" stop-color="#FF9D00"/>
</linearGradient>
<clipPath id="clip0_11198_152623">
<rect width="122" height="122" fill="white"/>
</clipPath>
</defs>
</svg>
