<svg width="450" height="321" viewBox="0 0 450 321" fill="none" xmlns="http://www.w3.org/2000/svg">
<path fill-rule="evenodd" clip-rule="evenodd" d="M401.486 198.7L401.491 198.667C408.697 194.715 416.161 185.628 421.259 179.421L421.26 179.421C422.638 177.743 423.844 176.275 424.824 175.177C434.199 163.056 440.99 149.144 444.781 134.298C467.983 52.1372 411.117 -9.34224 327.964 1.17258C267.754 11.8183 225.051 52.3613 182.318 92.9331C168.708 105.854 155.096 118.778 140.915 130.739C135.132 128.101 127.167 126.994 120.669 126.09C117.646 125.67 114.941 125.294 112.92 124.829C81.4296 122.227 45.5931 130.301 23.4637 154.12C-11.7287 193.658 -10.9497 254.735 50.7443 263.399C65.2224 265.987 80.0579 265.475 94.2785 261.926C94.6831 263.827 95.4629 265.649 96.2418 267.468C96.7266 268.601 97.2111 269.733 97.6046 270.883C100.062 276.802 101.905 283.006 103.749 289.21C106.434 298.244 109.119 307.279 113.699 315.436C115.215 317.417 117.238 318.356 119.319 318.5C120.616 319.931 122.429 320.898 124.694 320.989C171.374 300.614 220.395 286.09 270.641 277.749C298.8 272.415 327.003 269.794 355.381 267.157L355.384 267.157C371.527 265.657 387.726 264.151 404.007 262.138C412.296 262.32 415.37 255.032 413.362 249.728C414.186 248.204 414.533 246.337 414.147 244.193C412.722 238.24 410.961 232.365 409.204 226.502L409.203 226.499C408.91 225.521 408.617 224.544 408.325 223.566C407.876 222.017 407.422 220.468 406.967 218.918L406.964 218.908C405 212.221 403.031 205.514 401.486 198.7ZM110.479 256.58C120.402 253.153 131.931 248.336 128.236 238.614C127.237 236.532 125.461 234.924 123.29 234.137C121.118 233.35 118.724 233.445 116.622 234.403C88.9935 249.129 50.0726 254.762 24.7512 232.847C7.71828 211.549 22.7129 179.307 39.7726 162.462C62.6816 142.919 94.7693 138.879 123.867 144.36C119.213 147.856 114.479 151.218 109.648 154.415C100.099 160.799 109.46 174.908 119.036 169.061C145.786 152.237 168.515 130.353 191.259 108.454C205.576 94.6682 219.899 80.8769 235.235 68.3386C269.945 38.9401 315.035 11.6874 362.217 18.6615C385.742 23.4897 411.036 34.1387 422.168 56.8313C440.891 91.1923 432.951 136.953 409.32 167.049C404.562 173.215 399.044 178.755 392.897 183.536C390.576 182.844 387.904 182.609 385.381 182.387C384.417 182.302 383.475 182.219 382.583 182.113C390.275 169.227 394.236 148.917 393.818 140.279C394.73 129.121 377.992 127.485 376.811 138.589C376.527 145.365 375.566 152.096 373.942 158.68C372.063 165.413 368.832 171.692 364.446 177.135C362.979 177.691 361.69 178.632 360.713 179.86C360.41 180.242 360.14 180.647 359.906 181.07C353.344 180.955 346.782 180.988 340.224 181.167C345.233 169.811 348.003 156.391 346.767 150.741C346.055 143.737 344.625 136.825 342.501 130.113C338.987 119.438 322.975 124.561 326.14 135.29C331.741 150.663 330.145 169.305 319.457 182.229C306.712 183.184 294.006 184.696 281.374 186.764C265.699 190 250.266 194.311 235.183 199.666C233.04 200.38 231.257 201.897 230.207 203.897C229.157 205.897 228.921 208.226 229.55 210.395C230.248 212.552 231.759 214.352 233.762 215.414C235.765 216.476 238.103 216.715 240.279 216.082C243.598 215.078 246.904 214.042 250.208 213.005L250.21 213.005L250.211 213.005L250.212 213.004L250.213 213.004C258.388 210.44 266.553 207.879 274.881 205.835C290.592 202.139 305.831 200.533 321.742 199.575C322.831 199.731 323.908 199.66 324.969 199.389C328.79 199.179 332.653 199.001 336.575 198.834C352.456 197.528 368.317 198.415 384.109 199.453C384.269 203.518 385.712 208.123 387.022 212.301L387.022 212.302C387.792 214.758 388.516 217.067 388.906 219.033C390.263 223.539 391.498 228.086 392.733 232.631C393.885 236.87 395.036 241.107 396.285 245.307C382.11 246.962 367.887 248.358 353.658 249.754C317.519 253.3 281.342 256.849 245.829 264.66C219.743 269.938 194.013 276.845 168.791 285.341L168.721 285.363C154.353 289.96 139.836 294.604 126.642 301.951C124.615 296.443 122.819 290.832 121.022 285.22L121.022 285.22C117.909 275.494 114.796 265.768 110.479 256.58ZM154.475 250.36C146.777 253.358 135.478 257.758 140.87 267.395C145.957 274.033 152.793 270.431 159.438 266.931C162.568 265.281 165.656 263.655 168.499 263.131C176.308 260.027 184.277 257.341 192.371 255.084C197.528 253.727 202.712 252.454 207.883 251.184C209.868 250.697 211.851 250.21 213.83 249.719C224.479 246.393 219.436 230.138 208.707 233.41C190.922 237.269 173.503 242.654 156.643 249.504C155.969 249.778 155.24 250.062 154.475 250.36Z" fill="white"/>
</svg>
