<svg width="17" height="16" viewBox="0 0 17 16" fill="none" xmlns="http://www.w3.org/2000/svg">
<path fill-rule="evenodd" clip-rule="evenodd" d="M8.126 0.125522C8.24817 0.0438183 8.39365 0 8.54272 0C8.6918 0 8.83728 0.0438183 8.95945 0.125522L16.2322 4.9949C16.3281 5.05905 16.4064 5.14441 16.4605 5.24372C16.5146 5.34303 16.5428 5.45335 16.5427 5.56531V10.4347C16.5428 10.5467 16.5146 10.657 16.4605 10.7563C16.4064 10.8556 16.3281 10.9409 16.2322 11.0051L8.95945 15.8745C8.83728 15.9562 8.6918 16 8.54272 16C8.39365 16 8.24817 15.9562 8.126 15.8745L0.85327 11.0051C0.757335 10.9409 0.679007 10.8556 0.624942 10.7563C0.570877 10.657 0.542673 10.5467 0.542725 10.4347V5.56531C0.542673 5.45335 0.570877 5.34303 0.624942 5.24372C0.679007 5.14441 0.757335 5.05905 0.85327 4.9949L8.126 0.125522ZM1.99727 6.90091V9.09909L3.638 8L1.99727 6.90091ZM4.90636 8.84866L2.53836 10.4347L7.81545 13.9685V10.7964L4.90636 8.84866ZM9.27 10.7964V13.9685L14.5471 10.4347L12.1791 8.84866L9.27 10.7964ZM13.4475 8L15.0882 9.09909V6.90091L13.4475 8ZM14.5471 5.56531L12.1791 7.15134L9.27 5.20359V2.03154L14.5471 5.56531ZM7.81545 2.03154V5.20359L4.90636 7.15134L2.53836 5.56531L7.81545 2.03154ZM8.54272 6.41397L6.17473 8L8.54272 9.58603L10.9107 8L8.54272 6.41397Z" fill="white"/>
</svg>
