<svg width="55" height="44" viewBox="0 0 55 44" fill="none" xmlns="http://www.w3.org/2000/svg">
<path d="M54.7527 17.9481C54.0986 13.6544 51.9712 9.17507 49.0693 5.956C45.5936 2.11166 41.3468 0.317914 37.1001 0.89658C26.7786 2.29339 24.5986 11.2464 22.6652 19.1268L22.6587 19.1473L22.6417 19.228C20.9225 26.2069 19.4388 32.2323 13.1334 33.0758C8.97404 33.6509 5.77983 28.065 5.16055 24.0002L5.07333 23.4277L5.06378 23.4292C4.40609 18.023 5.73522 12.8413 9.00848 7.98827L8.66546 14.2597L11.4401 13.1827L12.2531 0.640259L0.504883 6.13037L0.604318 8.89773L6.50236 6.08553C2.67395 11.7163 1.10626 17.9595 1.99747 24.2576L2.04689 24.582C2.7374 29.1142 4.70885 33.8516 7.32726 37.2604C10.5747 41.53 14.6993 43.6744 18.9316 43.3224C23.5787 42.9365 27.0865 40.8401 29.6597 36.9039C31.8831 33.4898 33.0779 29.2854 34.2344 25.2137L34.2396 25.1836C36.2886 17.9983 38.0559 11.7832 44.3967 11.237C46.8194 11.0534 48.5246 12.5704 49.5237 13.8729C50.6457 15.3422 51.5057 17.3981 51.8051 19.3637C51.8415 19.6022 51.8669 19.8326 51.8921 20.0632C52.3113 25.0566 49.3419 31.6401 46.1889 36.0647L46.5402 29.6555L43.7655 30.7323L42.9525 43.2749L54.6993 37.7751L54.5999 35.0079L48.8105 37.7644C52.9169 31.9538 55.8512 25.1577 54.7527 17.9481ZM44.1715 8.15689C40.3318 8.45876 37.4196 10.2985 35.2814 13.7584C33.3984 16.7788 32.3098 20.6547 31.2593 24.3978L31.2408 24.4689C30.0969 28.4313 29.0194 32.1883 27.1652 35.0775C25.1133 38.2703 22.423 39.9005 18.7006 40.2041C15.0098 40.5224 12.1639 38.1831 10.3084 35.9372C11.3544 36.266 12.4637 36.3703 13.5941 36.2275C17.3907 35.7075 20.2026 33.7854 22.1991 30.3571C23.9389 27.3584 24.8579 23.5864 25.7469 19.9364C27.5982 12.3514 29.3457 5.17292 37.5703 4.04676C40.7248 3.60521 44.0006 5.04896 46.781 8.11079C46.8749 8.21367 46.9686 8.31653 47.0623 8.4194C46.0934 8.14721 45.1425 8.05778 44.1715 8.15689Z" fill="#1B1B1B"/>
</svg>
