<svg width="325" height="312" viewBox="0 0 325 312" fill="none" xmlns="http://www.w3.org/2000/svg">
<path d="M161.034 312C129.458 312 103.697 286.239 103.697 254.664V206.528C103.697 194.678 97.294 183.638 87.0633 177.75L53.2799 158.245C25.8998 142.421 16.4788 107.312 32.3032 79.9323C39.9579 66.6839 52.323 57.1892 67.1171 53.2146C81.9111 49.2401 97.3676 51.301 110.616 58.9556L144.399 78.4602C154.63 84.3484 167.363 84.3484 177.594 78.4602L199.012 66.095L238.831 39.7454C252.08 32.0908 267.536 30.03 282.33 34.0045C297.124 37.979 309.489 47.4737 317.144 60.7221C324.799 73.9705 326.859 89.427 322.885 104.221C318.984 118.868 309.563 131.159 296.535 138.814L253.552 167.004L234.857 177.75C224.626 183.638 218.223 194.678 218.223 206.528V254.664C218.37 286.313 192.683 312 161.034 312ZM81.9847 76.5466C79.1879 76.5466 76.391 76.9146 73.6677 77.6506C65.4242 79.8587 58.5056 85.158 54.2367 92.5918C45.4044 107.901 50.6302 127.479 65.9394 136.312L99.7229 155.816C117.755 166.268 129.017 185.699 129.017 206.528V254.664C129.017 272.329 143.369 286.681 161.034 286.681C178.698 286.681 193.051 272.329 193.051 254.664V206.528C193.051 185.699 204.312 166.268 222.344 155.816L240.671 145.217L283.581 117.101C291.015 112.832 296.314 105.914 298.523 97.6704C300.731 89.427 299.627 80.8155 295.358 73.3817C291.089 65.9478 284.17 60.6485 275.927 58.4404C267.83 56.2323 259.293 57.3364 251.932 61.4581L212.114 87.8077L190.401 100.32C172.368 110.772 149.92 110.772 131.887 100.32L98.1036 80.8155C93.0987 77.8714 87.5785 76.473 81.9847 76.5466Z" fill="url(#paint0_linear_1822_439)"/>
<path d="M57.4752 276.082C52.4702 276.082 47.4653 275.42 42.5339 274.095C27.7399 270.12 15.3747 260.626 7.72007 247.377C0.0654342 234.129 -1.99544 218.672 1.97908 203.878C5.9536 189.158 15.3747 176.793 28.6231 169.138L48.9373 156.331L83.5304 136.385C96.0428 129.172 103.771 115.776 103.771 101.277V55.4961C104.728 24.7303 130.047 0 161.107 0C192.167 0 218.443 25.7608 218.443 57.4097V101.35C218.443 115.776 226.172 129.246 238.684 136.459L268.861 153.902C282.109 161.557 291.604 173.922 295.578 188.716C299.553 203.51 297.492 218.967 289.837 232.215C282.183 245.463 269.818 254.958 255.024 258.933C240.23 262.907 224.773 260.846 211.525 253.192L181.348 235.748C168.835 228.535 153.379 228.535 140.867 235.748L122.981 246.052L86.1065 268.427C77.2742 273.506 67.4851 276.156 57.5488 276.156L57.4752 276.082ZM81.6167 166.635L41.3563 190.998C33.9225 195.267 28.6231 202.185 26.415 210.429C24.207 218.672 25.311 227.284 29.5799 234.718C33.8489 242.151 40.7675 247.451 49.0109 249.659C57.2544 251.867 65.7922 250.763 73.2261 246.568L103.624 228.093V227.873L128.06 213.741C148.374 202.038 173.546 202.038 193.86 213.741L224.037 231.185C231.471 235.454 240.082 236.558 248.326 234.423C256.569 232.215 263.488 226.916 267.757 219.482C272.026 212.048 273.13 203.437 270.995 195.193C268.787 186.95 263.488 180.031 256.054 175.762L225.877 158.318C205.563 146.616 192.977 124.756 192.977 101.35V57.4097C192.977 39.7452 178.624 25.3928 160.96 25.3928C143.295 25.3928 128.943 39.7452 128.943 57.4097V98.259V101.35C128.943 124.829 116.357 146.616 96.0428 158.318L81.6167 166.635Z" fill="white"/>
<path d="M57.4752 276.082C52.4702 276.082 47.4653 275.42 42.5339 274.095C27.7399 270.12 15.3747 260.626 7.72007 247.377C0.0654342 234.129 -1.99544 218.672 1.97908 203.878C5.9536 189.158 15.3747 176.793 28.6231 169.138L48.9373 156.331L83.5304 136.385C96.0428 129.172 103.771 115.776 103.771 101.277V55.4961C104.728 24.7303 130.047 0 161.107 0C192.167 0 218.443 25.7608 218.443 57.4097V101.35C218.443 115.776 226.172 129.246 238.684 136.459L268.861 153.902C282.109 161.557 291.604 173.922 295.578 188.716C299.553 203.51 297.492 218.967 289.837 232.215C282.183 245.463 269.818 254.958 255.024 258.933C240.23 262.907 224.773 260.846 211.525 253.192L181.348 235.748C168.835 228.535 153.379 228.535 140.867 235.748L122.981 246.052L86.1065 268.427C77.2742 273.506 67.4851 276.156 57.5488 276.156L57.4752 276.082ZM81.6167 166.635L41.3563 190.998C33.9225 195.267 28.6231 202.185 26.415 210.429C24.207 218.672 25.311 227.284 29.5799 234.718C33.8489 242.151 40.7675 247.451 49.0109 249.659C57.2544 251.867 65.7922 250.763 73.2261 246.568L103.624 228.093V227.873L128.06 213.741C148.374 202.038 173.546 202.038 193.86 213.741L224.037 231.185C231.471 235.454 240.082 236.558 248.326 234.423C256.569 232.215 263.488 226.916 267.757 219.482C272.026 212.048 273.13 203.437 270.995 195.193C268.787 186.95 263.488 180.031 256.054 175.762L225.877 158.318C205.563 146.616 192.977 124.756 192.977 101.35V57.4097C192.977 39.7452 178.624 25.3928 160.96 25.3928C143.295 25.3928 128.943 39.7452 128.943 57.4097V98.259V101.35C128.943 124.829 116.357 146.616 96.0428 158.318L81.6167 166.635Z" fill="white"/>
<path d="M161.034 312C129.458 312 103.697 286.239 103.697 254.664V206.528C103.697 194.678 97.294 183.638 87.0633 177.75L53.2799 158.245C25.8998 142.421 16.4788 107.312 32.3032 79.9323C39.9579 66.6839 52.323 57.1892 67.1171 53.2146C81.9111 49.2401 97.3676 51.301 110.616 58.9556L144.399 78.4602C154.63 84.3484 167.363 84.3484 177.594 78.4602L199.012 66.095L238.831 39.7454C252.08 32.0908 267.536 30.03 282.33 34.0045C297.124 37.979 309.489 47.4737 317.144 60.7221C324.799 73.9705 326.859 89.427 322.885 104.221C318.984 118.868 309.563 131.159 296.535 138.814L253.552 167.004L234.857 177.75C224.626 183.638 218.223 194.678 218.223 206.528V254.664C218.37 286.313 192.683 312 161.034 312ZM81.9847 76.5466C79.1879 76.5466 76.391 76.9146 73.6677 77.6506C65.4242 79.8587 58.5056 85.158 54.2367 92.5918C45.4044 107.901 50.6302 127.479 65.9394 136.312L99.7229 155.816C117.755 166.268 129.017 185.699 129.017 206.528V254.664C129.017 272.329 143.369 286.681 161.034 286.681C178.698 286.681 193.051 272.329 193.051 254.664V206.528C193.051 185.699 204.312 166.268 222.344 155.816L240.671 145.217L283.581 117.101C291.015 112.832 296.314 105.914 298.523 97.6704C300.731 89.427 299.627 80.8155 295.358 73.3817C291.089 65.9478 284.17 60.6485 275.927 58.4404C267.83 56.2323 259.293 57.3364 251.932 61.4581L212.114 87.8077L190.401 100.32C172.368 110.772 149.92 110.772 131.887 100.32L98.1036 80.8155C93.0987 77.8714 87.5785 76.473 81.9847 76.5466Z" fill="url(#paint1_linear_1822_439)"/>
<path d="M57.4752 276.082C52.4702 276.082 47.4653 275.42 42.5339 274.095C27.7399 270.12 15.3747 260.626 7.72007 247.377C0.0654342 234.129 -1.99544 218.672 1.97908 203.878C5.9536 189.158 15.3747 176.793 28.6231 169.138L48.9373 156.331L83.5304 136.385C96.0428 129.172 103.771 115.776 103.771 101.277V55.4961C104.728 24.7303 130.047 0 161.107 0C192.167 0 218.443 25.7608 218.443 57.4097V101.35C218.443 115.776 226.172 129.246 238.684 136.459L268.861 153.902C282.109 161.557 291.604 173.922 295.578 188.716C299.553 203.51 297.492 218.967 289.837 232.215C282.183 245.463 269.818 254.958 255.024 258.933C240.23 262.907 224.773 260.846 211.525 253.192L181.348 235.748C168.835 228.535 153.379 228.535 140.867 235.748L122.981 246.052L86.1065 268.427C77.2742 273.506 67.4851 276.156 57.5488 276.156L57.4752 276.082ZM81.6167 166.635L41.3563 190.998C33.9225 195.267 28.6231 202.185 26.415 210.429C24.207 218.672 25.311 227.284 29.5799 234.718C33.8489 242.151 40.7675 247.451 49.0109 249.659C57.2544 251.867 65.7922 250.763 73.2261 246.568L103.624 228.093V227.873L128.06 213.741C148.374 202.038 173.546 202.038 193.86 213.741L224.037 231.185C231.471 235.454 240.082 236.558 248.326 234.423C256.569 232.215 263.488 226.916 267.757 219.482C272.026 212.048 273.13 203.437 270.995 195.193C268.787 186.95 263.488 180.031 256.054 175.762L225.877 158.318C205.563 146.616 192.977 124.756 192.977 101.35V57.4097C192.977 39.7452 178.624 25.3928 160.96 25.3928C143.295 25.3928 128.943 39.7452 128.943 57.4097V98.259V101.35C128.943 124.829 116.357 146.616 96.0428 158.318L81.6167 166.635Z" fill="white"/>
<path d="M161.034 312C129.458 312 103.697 286.239 103.697 254.664V206.528C103.697 194.678 97.294 183.638 87.0633 177.75L53.2799 158.245C25.8998 142.421 16.4788 107.312 32.3032 79.9323C39.9579 66.6839 52.323 57.1892 67.1171 53.2146C81.9111 49.2401 97.3676 51.301 110.616 58.9556L144.399 78.4602C154.63 84.3484 167.363 84.3484 177.594 78.4602L199.012 66.095L238.831 39.7454C252.08 32.0908 267.536 30.03 282.33 34.0045C297.124 37.979 309.489 47.4737 317.144 60.7221C324.799 73.9705 326.859 89.427 322.885 104.221C318.984 118.868 309.563 131.159 296.535 138.814L253.552 167.004L234.857 177.75C224.626 183.638 218.223 194.678 218.223 206.528V254.664C218.37 286.313 192.683 312 161.034 312ZM81.9847 76.5466C79.1879 76.5466 76.391 76.9146 73.6677 77.6506C65.4242 79.8587 58.5056 85.158 54.2367 92.5918C45.4044 107.901 50.6302 127.479 65.9394 136.312L99.7229 155.816C117.755 166.268 129.017 185.699 129.017 206.528V254.664C129.017 272.329 143.369 286.681 161.034 286.681C178.698 286.681 193.051 272.329 193.051 254.664V206.528C193.051 185.699 204.312 166.268 222.344 155.816L240.671 145.217L283.581 117.101C291.015 112.832 296.314 105.914 298.523 97.6704C300.731 89.427 299.627 80.8155 295.358 73.3817C291.089 65.9478 284.17 60.6485 275.927 58.4404C267.83 56.2323 259.293 57.3364 251.932 61.4581L212.114 87.8077L190.401 100.32C172.368 110.772 149.92 110.772 131.887 100.32L98.1036 80.8155C93.0987 77.8714 87.5785 76.473 81.9847 76.5466Z" fill="url(#paint2_linear_1822_439)"/>
<defs>
<linearGradient id="paint0_linear_1822_439" x1="174.816" y1="-19.0176" x2="174.816" y2="287.58" gradientUnits="userSpaceOnUse">
<stop stop-color="#FF845A"/>
<stop offset="0.3" stop-color="#FD49AD"/>
<stop offset="0.68" stop-color="#395DF0"/>
<stop offset="1" stop-color="#0CDAC4"/>
</linearGradient>
<linearGradient id="paint1_linear_1822_439" x1="174.816" y1="-19.0176" x2="174.816" y2="287.58" gradientUnits="userSpaceOnUse">
<stop stop-color="#FF845A"/>
<stop offset="0.3" stop-color="#FD49AD"/>
<stop offset="0.68" stop-color="#395DF0"/>
<stop offset="1" stop-color="#0CDAC4"/>
</linearGradient>
<linearGradient id="paint2_linear_1822_439" x1="174.816" y1="-19.0176" x2="174.816" y2="287.58" gradientUnits="userSpaceOnUse">
<stop stop-color="#FF845A"/>
<stop offset="0.3" stop-color="#FD49AD"/>
<stop offset="0.68" stop-color="#395DF0"/>
<stop offset="1" stop-color="#0CDAC4"/>
</linearGradient>
</defs>
</svg>
