<svg width="155" height="48" viewBox="0 0 155 48" fill="none" xmlns="http://www.w3.org/2000/svg">
<path d="M0 19.3864C0.0359734 14.2379 2.10426 9.31209 5.75459 5.68122C9.40493 2.05036 14.3418 0.00844106 19.4904 0H20.9175V3.09897H19.512C15.1814 3.10111 11.0269 4.81381 7.95291 7.86425C4.87895 10.9147 3.13438 15.0559 3.09897 19.3864H0Z" fill="white"/>
<path d="M5.94434 38.9958V35.8968H7.37146C11.7013 35.8918 15.854 34.177 18.9259 31.1254C21.9977 28.0739 23.74 23.9327 23.7737 19.6029H26.8748C26.8388 24.7533 24.769 29.6807 21.1164 33.3119C17.4637 36.9431 12.5241 38.9837 7.37363 38.9893L5.94434 38.9958Z" fill="white"/>
<path d="M5.94434 33.0512V29.9523H7.37146C10.1253 29.949 12.767 28.861 14.7244 26.9239C16.6818 24.9868 17.7972 22.3566 17.8291 19.6029H20.9281C20.8939 23.1772 19.451 26.5936 16.9127 29.1104C14.3745 31.6271 10.9459 33.0409 7.37146 33.0448L5.94434 33.0512Z" fill="white"/>
<path d="M5.94434 19.3864C5.97744 15.8094 7.42125 12.3899 9.96188 9.8716C12.5025 7.35328 15.9345 5.93967 19.5118 5.93811H20.9389V9.03708H19.5118C16.7561 9.03746 14.1116 10.1242 12.1519 12.0616C10.1922 13.999 9.07522 16.6309 9.0433 19.3864H5.94434Z" fill="white"/>
<path d="M5.94434 27.1068V24.0079H7.37146C8.54934 24.0071 9.68029 23.5461 10.523 22.7231C11.3658 21.9002 11.8536 20.7806 11.8824 19.603V19.4883C11.8864 17.4682 12.6923 15.5325 14.1229 14.1063C15.5535 12.6802 17.4918 11.8804 19.5118 11.8827H20.9389V14.9817H19.5118C18.3322 14.9802 17.1988 15.4401 16.3539 16.2632C15.5089 17.0863 15.0194 18.2073 14.99 19.3865V19.5013C14.9877 21.5198 14.1847 23.4549 12.7572 24.882C11.3297 26.3091 9.39431 27.1116 7.37579 27.1133L5.94434 27.1068Z" fill="white"/>
<path d="M58.0161 15.1307C57.9252 14.3239 57.5502 13.6989 56.8911 13.2557C56.232 12.8068 55.4025 12.5824 54.4025 12.5824C53.6866 12.5824 53.0672 12.696 52.5445 12.9233C52.0218 13.1449 51.6155 13.4517 51.3258 13.8438C51.0417 14.2301 50.8996 14.6705 50.8996 15.1648C50.8996 15.5795 50.9962 15.9375 51.1894 16.2386C51.3883 16.5398 51.6468 16.7926 51.965 16.9972C52.2888 17.196 52.6354 17.3636 53.0047 17.5C53.3741 17.6307 53.7292 17.7386 54.0701 17.8239L55.7746 18.267C56.3315 18.4034 56.9025 18.5881 57.4877 18.821C58.0729 19.054 58.6155 19.3608 59.1155 19.7415C59.6155 20.1222 60.019 20.5938 60.3258 21.1562C60.6383 21.7188 60.7945 22.392 60.7945 23.1761C60.7945 24.1648 60.5388 25.0426 60.0275 25.8097C59.5218 26.5767 58.786 27.1818 57.8201 27.625C56.8599 28.0682 55.6979 28.2898 54.3343 28.2898C53.0275 28.2898 51.8968 28.0824 50.9422 27.6676C49.9877 27.2528 49.2405 26.6648 48.7008 25.9034C48.161 25.1364 47.8627 24.2273 47.8059 23.1761H50.4479C50.4991 23.8068 50.7036 24.3324 51.0616 24.7528C51.4252 25.1676 51.8883 25.4773 52.4508 25.6818C53.019 25.8807 53.6411 25.9801 54.3172 25.9801C55.0616 25.9801 55.7235 25.8636 56.303 25.6307C56.8883 25.392 57.3485 25.0625 57.6837 24.642C58.019 24.2159 58.1866 23.7187 58.1866 23.1506C58.1866 22.6335 58.0388 22.2102 57.7434 21.8807C57.4536 21.5511 57.0587 21.2784 56.5587 21.0625C56.0644 20.8466 55.5047 20.6562 54.8797 20.4915L52.8172 19.929C51.4195 19.5483 50.3116 18.9886 49.4934 18.25C48.6809 17.5114 48.2746 16.5341 48.2746 15.3182C48.2746 14.3125 48.5474 13.4347 49.0928 12.6847C49.6383 11.9347 50.3769 11.3523 51.3087 10.9375C52.2405 10.517 53.2917 10.3068 54.4621 10.3068C55.644 10.3068 56.6866 10.5142 57.59 10.929C58.4991 11.3438 59.215 11.9148 59.7377 12.642C60.2604 13.3636 60.5332 14.1932 60.5559 15.1307H58.0161ZM68.4512 28.2642C67.2239 28.2642 66.1529 27.983 65.2381 27.4205C64.3234 26.858 63.6131 26.071 63.1074 25.0597C62.6018 24.0483 62.3489 22.8665 62.3489 21.5142C62.3489 20.1562 62.6018 18.9687 63.1074 17.9517C63.6131 16.9347 64.3234 16.1449 65.2381 15.5824C66.1529 15.0199 67.2239 14.7386 68.4512 14.7386C69.6785 14.7386 70.7495 15.0199 71.6643 15.5824C72.579 16.1449 73.2893 16.9347 73.7949 17.9517C74.3006 18.9687 74.5535 20.1562 74.5535 21.5142C74.5535 22.8665 74.3006 24.0483 73.7949 25.0597C73.2893 26.071 72.579 26.858 71.6643 27.4205C70.7495 27.983 69.6785 28.2642 68.4512 28.2642ZM68.4597 26.125C69.2552 26.125 69.9143 25.9148 70.437 25.4943C70.9597 25.0739 71.3461 24.5142 71.5961 23.8153C71.8518 23.1165 71.9796 22.3466 71.9796 21.5057C71.9796 20.6705 71.8518 19.9034 71.5961 19.2045C71.3461 18.5 70.9597 17.9347 70.437 17.5085C69.9143 17.0824 69.2552 16.8693 68.4597 16.8693C67.6586 16.8693 66.9938 17.0824 66.4654 17.5085C65.9427 17.9347 65.5535 18.5 65.2978 19.2045C65.0478 19.9034 64.9228 20.6705 64.9228 21.5057C64.9228 22.3466 65.0478 23.1165 65.2978 23.8153C65.5535 24.5142 65.9427 25.0739 66.4654 25.4943C66.9938 25.9148 67.6586 26.125 68.4597 26.125ZM79.1462 10.5455V28H76.5979V10.5455H79.1462ZM85.5842 28.2898C84.7546 28.2898 84.0046 28.1364 83.3342 27.8295C82.6637 27.517 82.1324 27.0653 81.7404 26.4744C81.354 25.8835 81.1609 25.1591 81.1609 24.3011C81.1609 23.5625 81.3029 22.9545 81.587 22.4773C81.8711 22 82.2546 21.6222 82.7376 21.3438C83.2205 21.0653 83.7603 20.8551 84.3569 20.7131C84.9535 20.571 85.5614 20.4631 86.1807 20.3892C86.9648 20.2983 87.6012 20.2244 88.0898 20.1676C88.5785 20.1051 88.9336 20.0057 89.1552 19.8693C89.3768 19.733 89.4876 19.5114 89.4876 19.2045V19.1449C89.4876 18.4006 89.2773 17.8239 88.8569 17.4148C88.4421 17.0057 87.8228 16.8011 86.9989 16.8011C86.141 16.8011 85.4648 16.9915 84.9705 17.3722C84.4819 17.7472 84.1438 18.1648 83.9563 18.625L81.5614 18.0795C81.8455 17.2841 82.2603 16.642 82.8057 16.1534C83.3569 15.6591 83.9904 15.3011 84.7063 15.0795C85.4222 14.8523 86.1751 14.7386 86.9648 14.7386C87.4876 14.7386 88.0415 14.8011 88.6268 14.9261C89.2177 15.0455 89.7688 15.267 90.2802 15.5909C90.7972 15.9148 91.2205 16.3778 91.5501 16.9801C91.8796 17.5767 92.0444 18.3523 92.0444 19.3068V28H89.5557V26.2102H89.4535C89.2887 26.5398 89.0415 26.8636 88.712 27.1818C88.3824 27.5 87.9592 27.7642 87.4421 27.9744C86.9251 28.1847 86.3057 28.2898 85.5842 28.2898ZM86.1381 26.2443C86.8427 26.2443 87.4449 26.1051 87.9449 25.8267C88.4506 25.5483 88.8342 25.1847 89.0955 24.7358C89.3626 24.2812 89.4961 23.7955 89.4961 23.2784V21.5909C89.4052 21.6818 89.229 21.767 88.9677 21.8466C88.712 21.9205 88.4194 21.9858 88.0898 22.0426C87.7603 22.0937 87.4393 22.142 87.1268 22.1875C86.8143 22.2273 86.5529 22.2614 86.3427 22.2898C85.8484 22.3523 85.3967 22.4574 84.9876 22.6051C84.5842 22.7528 84.2603 22.9659 84.016 23.2443C83.7773 23.517 83.658 23.8807 83.658 24.3352C83.658 24.9659 83.891 25.4432 84.3569 25.767C84.8228 26.0852 85.4165 26.2443 86.1381 26.2443ZM97.1869 20.2273V28H94.6386V14.9091H97.0846V17.0398H97.2465C97.5476 16.3466 98.0192 15.7898 98.6613 15.3693C99.309 14.9489 100.124 14.7386 101.107 14.7386C101.999 14.7386 102.781 14.9261 103.451 15.3011C104.122 15.6705 104.641 16.2216 105.011 16.9545C105.38 17.6875 105.565 18.5937 105.565 19.6733V28H103.016V19.9801C103.016 19.0312 102.769 18.2898 102.275 17.7557C101.781 17.2159 101.102 16.946 100.238 16.946C99.6471 16.946 99.1215 17.0739 98.6613 17.3295C98.2067 17.5852 97.8459 17.9602 97.5789 18.4545C97.3175 18.9432 97.1869 19.5341 97.1869 20.2273ZM111.992 28.2898C111.162 28.2898 110.412 28.1364 109.742 27.8295C109.072 27.517 108.54 27.0653 108.148 26.4744C107.762 25.8835 107.569 25.1591 107.569 24.3011C107.569 23.5625 107.711 22.9545 107.995 22.4773C108.279 22 108.662 21.6222 109.145 21.3438C109.628 21.0653 110.168 20.8551 110.765 20.7131C111.361 20.571 111.969 20.4631 112.589 20.3892C113.373 20.2983 114.009 20.2244 114.498 20.1676C114.986 20.1051 115.341 20.0057 115.563 19.8693C115.785 19.733 115.895 19.5114 115.895 19.2045V19.1449C115.895 18.4006 115.685 17.8239 115.265 17.4148C114.85 17.0057 114.231 16.8011 113.407 16.8011C112.549 16.8011 111.873 16.9915 111.378 17.3722C110.89 17.7472 110.552 18.1648 110.364 18.625L107.969 18.0795C108.253 17.2841 108.668 16.642 109.214 16.1534C109.765 15.6591 110.398 15.3011 111.114 15.0795C111.83 14.8523 112.583 14.7386 113.373 14.7386C113.895 14.7386 114.449 14.8011 115.035 14.9261C115.625 15.0455 116.177 15.267 116.688 15.5909C117.205 15.9148 117.628 16.3778 117.958 16.9801C118.287 17.5767 118.452 18.3523 118.452 19.3068V28H115.964V26.2102H115.861C115.697 26.5398 115.449 26.8636 115.12 27.1818C114.79 27.5 114.367 27.7642 113.85 27.9744C113.333 28.1847 112.714 28.2898 111.992 28.2898ZM112.546 26.2443C113.25 26.2443 113.853 26.1051 114.353 25.8267C114.858 25.5483 115.242 25.1847 115.503 24.7358C115.77 24.2812 115.904 23.7955 115.904 23.2784V21.5909C115.813 21.6818 115.637 21.767 115.375 21.8466C115.12 21.9205 114.827 21.9858 114.498 22.0426C114.168 22.0937 113.847 22.142 113.535 22.1875C113.222 22.2273 112.961 22.2614 112.75 22.2898C112.256 22.3523 111.804 22.4574 111.395 22.6051C110.992 22.7528 110.668 22.9659 110.424 23.2443C110.185 23.517 110.066 23.8807 110.066 24.3352C110.066 24.9659 110.299 25.4432 110.765 25.767C111.231 26.0852 111.824 26.2443 112.546 26.2443ZM120.85 28V10.5455H132.407V13.5881H124.541V17.7472H131.64V20.7898H124.541V28H120.85ZM134.089 10.5455H138.641L143.447 22.2727H143.652L148.459 10.5455H153.01V28H149.43V16.6392H149.285L144.768 27.9148H142.331L137.814 16.5966H137.669V28H134.089V10.5455Z" fill="white"/>
<path d="M134.011 40V32.7273H135.523V35.4616H135.57C135.636 35.3149 135.732 35.1657 135.857 35.0142C135.985 34.8603 136.151 34.7325 136.354 34.6307C136.56 34.5265 136.816 34.4744 137.121 34.4744C137.519 34.4744 137.886 34.5786 138.222 34.7869C138.558 34.9929 138.827 35.3042 139.028 35.7209C139.23 36.1352 139.33 36.6548 139.33 37.2798C139.33 37.8883 139.232 38.402 139.035 38.821C138.841 39.2377 138.576 39.5537 138.24 39.7692C137.906 39.9822 137.532 40.0888 137.118 40.0888C136.824 40.0888 136.575 40.0402 136.369 39.9432C136.165 39.8461 135.998 39.7242 135.868 39.5774C135.738 39.4283 135.638 39.2779 135.57 39.1264H135.502V40H134.011ZM135.491 37.2727C135.491 37.5971 135.536 37.88 135.626 38.1214C135.716 38.3629 135.847 38.5511 136.017 38.6861C136.187 38.8187 136.395 38.8849 136.638 38.8849C136.885 38.8849 137.093 38.8175 137.263 38.6825C137.434 38.5452 137.563 38.3558 137.651 38.1143C137.74 37.8705 137.785 37.59 137.785 37.2727C137.785 36.9579 137.742 36.6809 137.654 36.4418C137.566 36.2027 137.437 36.0156 137.267 35.8807C137.097 35.7457 136.887 35.6783 136.638 35.6783C136.392 35.6783 136.184 35.7434 136.013 35.8736C135.845 36.0038 135.716 36.1884 135.626 36.4276C135.536 36.6667 135.491 36.9484 135.491 37.2727ZM142.025 40.1065C141.464 40.1065 140.981 39.9929 140.577 39.7656C140.174 39.536 139.864 39.2116 139.646 38.7926C139.428 38.3712 139.319 37.8729 139.319 37.2976C139.319 36.7365 139.428 36.2441 139.646 35.8203C139.864 35.3965 140.171 35.0663 140.566 34.8295C140.964 34.5928 141.43 34.4744 141.965 34.4744C142.325 34.4744 142.66 34.5324 142.97 34.6484C143.283 34.7621 143.555 34.9337 143.787 35.1634C144.021 35.393 144.203 35.6818 144.334 36.0298C144.464 36.3755 144.529 36.7803 144.529 37.2443V37.6598H139.923V36.7223H143.105C143.105 36.5045 143.058 36.3116 142.963 36.1435C142.868 35.9754 142.737 35.844 142.569 35.7493C142.403 35.6522 142.21 35.6037 141.99 35.6037C141.76 35.6037 141.557 35.657 141.379 35.7635C141.204 35.8677 141.067 36.0085 140.967 36.1861C140.868 36.3613 140.817 36.5566 140.814 36.772V37.6634C140.814 37.9332 140.864 38.1664 140.964 38.3629C141.065 38.5594 141.209 38.7109 141.393 38.8175C141.578 38.924 141.797 38.9773 142.05 38.9773C142.218 38.9773 142.372 38.9536 142.512 38.9062C142.652 38.8589 142.771 38.7879 142.871 38.6932C142.97 38.5985 143.046 38.4825 143.098 38.3452L144.497 38.4375C144.426 38.7737 144.28 39.0672 144.06 39.3182C143.842 39.5668 143.561 39.7609 143.215 39.9006C142.872 40.0379 142.475 40.1065 142.025 40.1065ZM147.617 34.5455V35.6818H144.333V34.5455H147.617ZM145.078 33.2386H146.591V38.3239C146.591 38.4635 146.612 38.5724 146.655 38.6506C146.698 38.7263 146.757 38.7796 146.833 38.8104C146.911 38.8411 147.001 38.8565 147.103 38.8565C147.174 38.8565 147.245 38.8506 147.316 38.8388C147.387 38.8246 147.441 38.8139 147.479 38.8068L147.717 39.9325C147.641 39.9562 147.535 39.9834 147.397 40.0142C147.26 40.0473 147.093 40.0675 146.897 40.0746C146.532 40.0888 146.212 40.0402 145.938 39.929C145.666 39.8177 145.454 39.6449 145.302 39.4105C145.151 39.1761 145.076 38.8802 145.078 38.5227V33.2386ZM149.358 40.103C149.01 40.103 148.7 40.0426 148.428 39.9219C148.156 39.7988 147.94 39.6177 147.782 39.3786C147.625 39.1371 147.547 38.8364 147.547 38.4766C147.547 38.1735 147.603 37.919 147.714 37.7131C147.825 37.5071 147.977 37.3414 148.169 37.2159C148.36 37.0904 148.578 36.9957 148.822 36.9318C149.068 36.8679 149.326 36.8229 149.596 36.7969C149.913 36.7637 150.169 36.733 150.363 36.7045C150.557 36.6738 150.698 36.6288 150.786 36.5696C150.873 36.5104 150.917 36.4228 150.917 36.3068V36.2855C150.917 36.0606 150.846 35.8866 150.704 35.7635C150.565 35.6404 150.366 35.5788 150.108 35.5788C149.835 35.5788 149.619 35.6392 149.458 35.7599C149.297 35.8783 149.19 36.0275 149.138 36.2074L147.739 36.0938C147.81 35.7623 147.95 35.4759 148.158 35.2344C148.366 34.9905 148.635 34.8035 148.964 34.6733C149.296 34.5407 149.679 34.4744 150.115 34.4744C150.418 34.4744 150.708 34.5099 150.985 34.581C151.264 34.652 151.511 34.7621 151.727 34.9112C151.945 35.0604 152.116 35.2521 152.242 35.4865C152.367 35.7185 152.43 35.9967 152.43 36.321V40H150.995V39.2436H150.953C150.865 39.4141 150.748 39.5644 150.601 39.6946C150.454 39.8224 150.278 39.9231 150.072 39.9964C149.866 40.0675 149.628 40.103 149.358 40.103ZM149.792 39.0589C150.014 39.0589 150.211 39.0152 150.381 38.9276C150.551 38.8376 150.685 38.7169 150.782 38.5653C150.879 38.4138 150.928 38.2422 150.928 38.0504V37.4716C150.881 37.5024 150.815 37.5308 150.733 37.5568C150.652 37.5805 150.561 37.603 150.459 37.6243C150.357 37.6432 150.256 37.661 150.154 37.6776C150.052 37.6918 149.96 37.7048 149.877 37.7166C149.699 37.7427 149.544 37.7841 149.412 37.8409C149.279 37.8977 149.176 37.9747 149.103 38.0717C149.029 38.1664 148.993 38.2848 148.993 38.4268C148.993 38.6328 149.067 38.7902 149.216 38.8991C149.368 39.0057 149.56 39.0589 149.792 39.0589Z" fill="#E4830C"/>
</svg>
