<svg width="3840" height="1760" viewBox="0 0 3840 1760" fill="none" xmlns="http://www.w3.org/2000/svg">
<rect width="3840" height="1760" fill="black"/>
<path d="M1624 965L1673.92 879.271L1624.49 795H1661.02L1694.87 856.443H1699.25L1733.1 795H1769.63L1720.19 879.271L1770.12 965H1733.59L1699.25 902.1H1694.87L1660.53 965H1624Z" fill="white"/>
<path d="M1791.44 965V795H1865.47C1876.19 795 1885.52 796.862 1893.48 800.586C1901.43 804.31 1907.6 809.571 1911.99 816.371C1916.37 823.171 1918.56 831.186 1918.56 840.414V843.329C1918.56 853.529 1916.13 861.786 1911.26 868.1C1906.39 874.414 1900.38 879.029 1893.24 881.943V886.314C1899.73 886.638 1904.76 888.905 1908.33 893.114C1911.91 897.162 1913.69 902.586 1913.69 909.386V965H1881.55V914C1881.55 910.114 1880.49 906.957 1878.38 904.529C1876.43 902.1 1873.1 900.886 1868.4 900.886H1823.59V965H1791.44ZM1823.59 871.743H1862.06C1869.69 871.743 1875.62 869.719 1879.84 865.671C1884.22 861.462 1886.42 855.957 1886.42 849.157V846.729C1886.42 839.929 1884.31 834.505 1880.08 830.457C1875.86 826.248 1869.86 824.143 1862.06 824.143H1823.59V871.743Z" fill="white"/>
<path d="M1933.62 965L1978.43 795H2034.44L2079.25 965H2046.13L2036.88 927.6H1976L1966.74 965H1933.62ZM1983.55 897.971H2029.33L2008.63 815.157H2004.25L1983.55 897.971Z" fill="white"/>
<path d="M2125.89 965V906.471L2067.93 795H2103.73L2139.78 867.857H2144.16L2180.2 795H2216L2158.04 906.471V965H2125.89Z" fill="white"/>
</svg>
